<svg width="100" height="100" viewBox="0 0 100 100" xmlns="http://www.w3.org/2000/svg">
<defs><linearGradient id="fiscalPosGrad" x1="0%" y1="0%" x2="100%" y2="100%">
<stop offset="0%" stop-color="#7FE6FF"/><stop offset="100%" stop-color="#35D0FF"/></linearGradient></defs>
<rect x="10" y="10" width="80" height="80" rx="18" fill="#FFFFFF" stroke="#D6E4FF" stroke-width="1.5"/>
<rect x="28" y="22" width="44" height="50" rx="8" fill="url(#fiscalPosGrad)"/>
<rect x="36" y="31" width="20" height="3.4" rx="1.7" fill="#FFFFFF" opacity="0.95"/>
<rect x="36" y="39" width="24" height="3.4" rx="1.7" fill="#FFFFFF" opacity="0.82"/>
<rect x="36" y="47" width="16" height="3.4" rx="1.7" fill="#FFFFFF" opacity="0.74"/>
<circle cx="60" cy="57" r="11" fill="#FFFFFF" stroke="url(#fiscalPosGrad)" stroke-width="3"/>
<path d="M60 50.5 C56.8 50.5 54.5 52.8 54.5 56 C54.5 60.1 60 65.2 60 65.2 C60 65.2 65.5 60.1 65.5 56 C65.5 52.8 63.2 50.5 60 50.5 Z" fill="url(#fiscalPosGrad)"/>
<circle cx="60" cy="56" r="2.2" fill="#FFFFFF"/>
<rect x="30" y="76" width="40" height="5.5" rx="2.7" fill="url(#fiscalPosGrad)" opacity="0.18"/>
</svg>