<svg width="100" height="100" viewBox="0 0 100 100" xmlns="http://www.w3.org/2000/svg">
  <defs>
    <linearGradient id="settingsGrad" x1="0%" y1="0%" x2="100%" y2="100%">
      <stop offset="0%" stop-color="#7FE6FF"/>
      <stop offset="100%" stop-color="#35D0FF"/>
    </linearGradient>
    <linearGradient id="panelGlow" x1="0%" y1="0%" x2="0%" y2="100%">
      <stop offset="0%" stop-color="#FFFFFF" stop-opacity="0.22"/>
      <stop offset="100%" stop-color="#FFFFFF" stop-opacity="0"/>
    </linearGradient>
  </defs>
  <rect x="10" y="10" width="80" height="80" rx="18" fill="#FFFFFF" stroke="#D6E4FF" stroke-width="1.5"/>
  <rect x="22" y="20" width="56" height="54" rx="10" fill="url(#settingsGrad)"/>
  <rect x="22" y="20" width="56" height="15" rx="10" fill="url(#panelGlow)"/>
  <rect x="30" y="34" width="34" height="3.2" rx="1.6" fill="#FFFFFF" opacity="0.88"/>
  <circle cx="54" cy="35.6" r="5" fill="#FFFFFF"/>
  <circle cx="54" cy="35.6" r="2.1" fill="url(#settingsGrad)"/>
  <rect x="30" y="48" width="34" height="3.2" rx="1.6" fill="#FFFFFF" opacity="0.74"/>
  <circle cx="40" cy="49.6" r="5" fill="#FFFFFF"/>
  <circle cx="40" cy="49.6" r="2.1" fill="url(#settingsGrad)"/>
  <circle cx="64" cy="58" r="8.5" fill="#FFFFFF"/>
  <circle cx="64" cy="58" r="3.3" fill="url(#settingsGrad)"/>
  <rect x="63.2" y="46.8" width="1.6" height="4" rx="0.8" fill="#FFFFFF"/>
  <rect x="63.2" y="65.2" width="1.6" height="4" rx="0.8" fill="#FFFFFF"/>
  <rect x="52.8" y="57.2" width="4" height="1.6" rx="0.8" fill="#FFFFFF"/>
  <rect x="71.2" y="57.2" width="4" height="1.6" rx="0.8" fill="#FFFFFF"/>
  <rect x="56.2" y="49.7" width="1.6" height="3.5" rx="0.8" transform="rotate(-45 56.2 49.7)" fill="#FFFFFF"/>
  <rect x="69.8" y="63.3" width="1.6" height="3.5" rx="0.8" transform="rotate(-45 69.8 63.3)" fill="#FFFFFF"/>
  <rect x="69.8" y="49.7" width="1.6" height="3.5" rx="0.8" transform="rotate(45 69.8 49.7)" fill="#FFFFFF"/>
  <rect x="56.2" y="63.3" width="1.6" height="3.5" rx="0.8" transform="rotate(45 56.2 63.3)" fill="#FFFFFF"/>
  <rect x="30" y="77" width="40" height="5" rx="2.5" fill="url(#settingsGrad)" opacity="0.18"/>
</svg>