<svg width="100" height="100" viewBox="0 0 100 100" xmlns="http://www.w3.org/2000/svg">
  <defs>
    <linearGradient id="salesTeamsGrad" x1="0%" y1="0%" x2="100%" y2="100%">
      <stop offset="0%" stop-color="#7FE6FF"/>
      <stop offset="100%" stop-color="#35D0FF"/>
    </linearGradient>
    <linearGradient id="panelGlow" x1="0%" y1="0%" x2="0%" y2="100%">
      <stop offset="0%" stop-color="#FFFFFF" stop-opacity="0.22"/>
      <stop offset="100%" stop-color="#FFFFFF" stop-opacity="0"/>
    </linearGradient>
  </defs>
  <rect x="10" y="10" width="80" height="80" rx="18" fill="#FFFFFF" stroke="#D6E4FF" stroke-width="1.5"/>
  <rect x="22" y="20" width="56" height="54" rx="10" fill="url(#salesTeamsGrad)"/>
  <rect x="22" y="20" width="56" height="15" rx="10" fill="url(#panelGlow)"/>
  <path d="M30 55 C37 51, 44 47, 50 43 C56 39, 61 34, 68 28" fill="none" stroke="#FFFFFF" stroke-width="2.6" stroke-linecap="round" opacity="0.30"/>
  <path d="M63 28 L70 27 L67 33" fill="none" stroke="#FFFFFF" stroke-width="2.6" stroke-linecap="round" opacity="0.30"/>
  <circle cx="50" cy="41" r="7.2" fill="#FFFFFF"/>
  <path d="M39.5 58 C41.5 51.5 45.5 48.5 50 48.5 C54.5 48.5 58.5 51.5 60.5 58" fill="none" stroke="#FFFFFF" stroke-width="4" stroke-linecap="round"/>
  <circle cx="35" cy="45" r="5.5" fill="#FFFFFF" opacity="0.95"/>
  <path d="M27.5 58 C29 53.5 31.8 51.3 35 51.3 C38.2 51.3 41 53.5 42.5 58" fill="none" stroke="#FFFFFF" stroke-width="3.2" stroke-linecap="round" opacity="0.95"/>
  <circle cx="65" cy="45" r="5.5" fill="#FFFFFF" opacity="0.95"/>
  <path d="M57.5 58 C59 53.5 61.8 51.3 65 51.3 C68.2 51.3 71 53.5 72.5 58" fill="none" stroke="#FFFFFF" stroke-width="3.2" stroke-linecap="round" opacity="0.95"/>
  <rect x="30" y="77" width="40" height="5" rx="2.5" fill="url(#salesTeamsGrad)" opacity="0.18"/>
</svg>