<svg width="100" height="100" viewBox="0 0 100 100" xmlns="http://www.w3.org/2000/svg">
<defs>
<linearGradient id="topFace" x1="0%" y1="0%" x2="100%" y2="100%">
<stop offset="0%" stop-color="#2E5B9A"/>
<stop offset="100%" stop-color="#142C52"/>
</linearGradient>
<linearGradient id="leftFace" x1="0%" y1="0%" x2="100%" y2="100%">
<stop offset="0%" stop-color="#162E54"/>
<stop offset="100%" stop-color="#0A1633"/>
</linearGradient>
<linearGradient id="rightFace" x1="0%" y1="0%" x2="100%" y2="100%">
<stop offset="0%" stop-color="#1B3B6E"/>
<stop offset="100%" stop-color="#0C1F40"/>
</linearGradient>
</defs>
<polygon points="50,20 70,32 50,44 30,32" fill="url(#topFace)"/>
<polygon points="70,32 70,56 50,68 50,44" fill="url(#rightFace)"/>
<polygon points="30,32 30,56 50,68 50,44" fill="url(#leftFace)"/>
<circle cx="50" cy="32" r="2.5" fill="#35D0FF"/>
<line x1="50" y1="18" x2="50" y2="10" stroke="#35D0FF" stroke-width="2"/>
<line x1="28" y1="34" x2="18" y2="28" stroke="#35D0FF" stroke-width="2"/>
<line x1="72" y1="34" x2="82" y2="28" stroke="#35D0FF" stroke-width="2"/>
<line x1="34" y1="60" x2="22" y2="70" stroke="#35D0FF" stroke-width="2"/>
<line x1="66" y1="60" x2="78" y2="70" stroke="#35D0FF" stroke-width="2"/>
<line x1="50" y1="68" x2="50" y2="82" stroke="#35D0FF" stroke-width="2"/>
<circle cx="50" cy="10" r="3.5" fill="#7FE6FF"/>
<circle cx="18" cy="28" r="3.5" fill="#7FE6FF"/>
<circle cx="82" cy="28" r="3.5" fill="#7FE6FF"/>
<circle cx="22" cy="70" r="3.5" fill="#7FE6FF"/>
<circle cx="78" cy="70" r="3.5" fill="#7FE6FF"/>
<circle cx="50" cy="82" r="3.5" fill="#7FE6FF"/>
</svg>