<svg width="100" height="100" viewBox="0 0 100 100" xmlns="http://www.w3.org/2000/svg">
<defs>
<linearGradient id="pnlGrad" x1="0%" y1="0%" x2="100%" y2="100%">
<stop offset="0%" stop-color="#7FE6FF"/>
<stop offset="100%" stop-color="#35D0FF"/>
</linearGradient>
<linearGradient id="lossGrad" x1="0%" y1="0%" x2="100%" y2="100%">
<stop offset="0%" stop-color="#FF6B6B"/>
<stop offset="100%" stop-color="#FF3B3B"/>
</linearGradient>
</defs>
<rect x="10" y="10" width="80" height="80" rx="18" fill="#FFFFFF" stroke="#D6E4FF" stroke-width="1.5"/>
<rect x="24" y="68" width="52" height="4.5" rx="2.2" fill="url(#pnlGrad)" opacity="0.18"/>
<rect x="24" y="50" width="10" height="18" rx="2.4" fill="url(#pnlGrad)"/>
<rect x="39" y="43" width="10" height="25" rx="2.4" fill="url(#pnlGrad)"/>
<rect x="54" y="35" width="10" height="33" rx="2.4" fill="url(#pnlGrad)"/>
<rect x="69" y="27" width="10" height="41" rx="2.4" fill="url(#pnlGrad)"/>
<path d="M20 56 C31 50, 42 44, 55 37 C64 32, 72 27, 80 20" fill="none" stroke="url(#pnlGrad)" stroke-width="5" stroke-linecap="round"/>
<path d="M75 20 L84 19 L80 27" fill="none" stroke="url(#pnlGrad)" stroke-width="5" stroke-linecap="round" stroke-linejoin="round"/>
<path d="M26 61 C37 60, 47 59, 57 58 C65 57.5, 72 58, 77 60" fill="none" stroke="url(#lossGrad)" stroke-width="3.5" stroke-linecap="round"/>
<path d="M73 56.8 L79 60 L73.4 63.5" fill="none" stroke="url(#lossGrad)" stroke-width="3.5" stroke-linecap="round" stroke-linejoin="round"/>
</svg>