<svg width="100" height="100" viewBox="0 0 100 100" xmlns="http://www.w3.org/2000/svg">
<defs>
<linearGradient id="balanceSheetGrad" x1="0%" y1="0%" x2="100%" y2="100%">
<stop offset="0%" stop-color="#7FE6FF"/>
<stop offset="100%" stop-color="#35D0FF"/>
</linearGradient>
</defs>
<rect x="10" y="10" width="80" height="80" rx="18" fill="#FFFFFF" stroke="#D6E4FF" stroke-width="1.5"/>
<rect x="26" y="22" width="48" height="50" rx="8" fill="url(#balanceSheetGrad)"/>
<rect x="34" y="30" width="18" height="3.2" rx="1.6" fill="#FFFFFF" opacity="0.95"/>
<rect x="34" y="38" width="22" height="3.2" rx="1.6" fill="#FFFFFF" opacity="0.82"/>
<path d="M50 42 V50" stroke="#FFFFFF" stroke-width="2.8" stroke-linecap="round"/>
<path d="M40 50 H60" stroke="#FFFFFF" stroke-width="2.8" stroke-linecap="round"/>
<path d="M44 50 L39 58" stroke="#FFFFFF" stroke-width="2.2" stroke-linecap="round"/>
<path d="M56 50 L61 58" stroke="#FFFFFF" stroke-width="2.2" stroke-linecap="round"/>
<path d="M34 58 H44 C43 62 41 64 39 64 C37 64 35 62 34 58 Z" fill="#FFFFFF"/>
<path d="M56 58 H66 C65 62 63 64 61 64 C59 64 57 62 56 58 Z" fill="#FFFFFF"/>
</svg>