<svg width="100" height="100" viewBox="0 0 100 100" xmlns="http://www.w3.org/2000/svg">
<defs><linearGradient id="assetCategoryGrad" x1="0%" y1="0%" x2="100%" y2="100%">
<stop offset="0%" stop-color="#7FE6FF"/><stop offset="100%" stop-color="#35D0FF"/></linearGradient></defs>
<rect x="10" y="10" width="80" height="80" rx="18" fill="#FFFFFF" stroke="#D6E4FF" stroke-width="1.5"/>
<rect x="38" y="26" width="24" height="16" rx="6" fill="url(#assetCategoryGrad)"/>
<rect x="48.75" y="42" width="2.5" height="10" rx="1.2" fill="url(#assetCategoryGrad)"/>
<rect x="30" y="52" width="40" height="2.5" rx="1.2" fill="url(#assetCategoryGrad)"/>
<rect x="31" y="54" width="2.5" height="8" rx="1.2" fill="url(#assetCategoryGrad)"/>
<rect x="48.75" y="54" width="2.5" height="8" rx="1.2" fill="url(#assetCategoryGrad)"/>
<rect x="66.5" y="54" width="2.5" height="8" rx="1.2" fill="url(#assetCategoryGrad)"/>
<rect x="24" y="62" width="16" height="10" rx="4" fill="url(#assetCategoryGrad)" opacity="0.88"/>
<rect x="42" y="62" width="16" height="10" rx="4" fill="url(#assetCategoryGrad)" opacity="1"/>
<rect x="60" y="62" width="16" height="10" rx="4" fill="url(#assetCategoryGrad)" opacity="0.88"/>
<rect x="30" y="76" width="40" height="5.5" rx="2.7" fill="url(#assetCategoryGrad)" opacity="0.18"/>
</svg>