<svg width="100" height="100" viewBox="0 0 100 100" xmlns="http://www.w3.org/2000/svg">
<defs><linearGradient id="depreciationGrad" x1="0%" y1="0%" x2="100%" y2="100%">
<stop offset="0%" stop-color="#7FE6FF"/><stop offset="100%" stop-color="#35D0FF"/></linearGradient></defs>
<rect x="10" y="10" width="80" height="80" rx="18" fill="#FFFFFF" stroke="#D6E4FF" stroke-width="1.5"/>
<rect x="28" y="24" width="44" height="22" rx="7" fill="url(#depreciationGrad)"/>
<rect x="36" y="31" width="28" height="3.2" rx="1.6" fill="#FFFFFF" opacity="0.92"/>
<circle cx="64" cy="50" r="11" fill="#FFFFFF" stroke="url(#depreciationGrad)" stroke-width="3"/>
<path d="M59 50 L63 54 L70 46" fill="none" stroke="url(#depreciationGrad)" stroke-width="3.5" stroke-linecap="round" stroke-linejoin="round"/>
<rect x="34" y="50" width="18" height="22" rx="4" fill="#FFFFFF" stroke="url(#depreciationGrad)" stroke-width="2.6"/>
<rect x="37" y="53" width="12" height="4" rx="1.5" fill="url(#depreciationGrad)" opacity="0.9"/>
<rect x="37" y="60" width="4" height="4" rx="1" fill="url(#depreciationGrad)"/>
<rect x="43" y="60" width="4" height="4" rx="1" fill="url(#depreciationGrad)"/>
<rect x="37" y="66" width="4" height="4" rx="1" fill="url(#depreciationGrad)"/>
<rect x="43" y="66" width="4" height="4" rx="1" fill="url(#depreciationGrad)"/>
<rect x="30" y="76" width="40" height="5.5" rx="2.7" fill="url(#depreciationGrad)" opacity="0.18"/>
</svg>