<svg width="100" height="100" viewBox="0 0 100 100" xmlns="http://www.w3.org/2000/svg">
  <defs>
    <linearGradient id="assetGroupsGrad" x1="0%" y1="0%" x2="100%" y2="100%">
      <stop offset="0%" stop-color="#7FE6FF"/>
      <stop offset="100%" stop-color="#35D0FF"/>
    </linearGradient>
    <linearGradient id="panelGlow" x1="0%" y1="0%" x2="0%" y2="100%">
      <stop offset="0%" stop-color="#FFFFFF" stop-opacity="0.22"/>
      <stop offset="100%" stop-color="#FFFFFF" stop-opacity="0"/>
    </linearGradient>
    <linearGradient id="blockSide" x1="0%" y1="0%" x2="100%" y2="100%">
      <stop offset="0%" stop-color="#1B3B6E" stop-opacity="0.20"/>
      <stop offset="100%" stop-color="#0A1633" stop-opacity="0.10"/>
    </linearGradient>
    <linearGradient id="blockTop" x1="0%" y1="0%" x2="100%" y2="100%">
      <stop offset="0%" stop-color="#FFFFFF" stop-opacity="0.55"/>
      <stop offset="100%" stop-color="#FFFFFF" stop-opacity="0.18"/>
    </linearGradient>
  </defs>

  <rect x="10" y="10" width="80" height="80" rx="18"
        fill="#FFFFFF"
        stroke="#D6E4FF"
        stroke-width="1.5"/>

  <rect x="22" y="20" width="56" height="54" rx="10"
        fill="url(#assetGroupsGrad)"/>

  <rect x="22" y="20" width="56" height="15" rx="10"
        fill="url(#panelGlow)"/>

  <rect x="41" y="28" width="18" height="10" rx="3"
        fill="#FFFFFF"/>
  <polygon points="59,28 61.5,26 61.5,36 59,38" fill="url(#blockSide)"/>
  <polygon points="41,28 59,28 61.5,26 43.5,26" fill="url(#blockTop)"/>

  <path d="M50 38 V46"
        fill="none"
        stroke="#FFFFFF"
        stroke-width="2.4"
        stroke-linecap="round"/>

  <path d="M34 46 H66"
        fill="none"
        stroke="#FFFFFF"
        stroke-width="2.4"
        stroke-linecap="round"/>

  <path d="M34 46 V52"
        fill="none"
        stroke="#FFFFFF"
        stroke-width="2.2"
        stroke-linecap="round"/>

  <path d="M50 46 V52"
        fill="none"
        stroke="#FFFFFF"
        stroke-width="2.2"
        stroke-linecap="round"/>

  <path d="M66 46 V52"
        fill="none"
        stroke="#FFFFFF"
        stroke-width="2.2"
        stroke-linecap="round"/>

  <rect x="26" y="52" width="14" height="10" rx="3"
        fill="#FFFFFF"/>
  <polygon points="40,52 42,50.5 42,60.5 40,62" fill="url(#blockSide)"/>
  <polygon points="26,52 40,52 42,50.5 28,50.5" fill="url(#blockTop)"/>

  <rect x="43" y="52" width="14" height="10" rx="3"
        fill="#FFFFFF"/>
  <polygon points="57,52 59,50.5 59,60.5 57,62" fill="url(#blockSide)"/>
  <polygon points="43,52 57,52 59,50.5 45,50.5" fill="url(#blockTop)"/>

  <rect x="60" y="52" width="14" height="10" rx="3"
        fill="#FFFFFF"/>
  <polygon points="74,52 76,50.5 76,60.5 74,62" fill="url(#blockSide)"/>
  <polygon points="60,52 74,52 76,50.5 62,50.5" fill="url(#blockTop)"/>

  <circle cx="50" cy="66" r="7.5"
          fill="#FFFFFF"/>

  <text x="50" y="69.8"
        text-anchor="middle"
        font-size="11"
        font-family="Arial, sans-serif"
        font-weight="700"
        fill="url(#assetGroupsGrad)">€</text>

  <rect x="30" y="77" width="40" height="5" rx="2.5"
        fill="url(#assetGroupsGrad)" opacity="0.18"/>
</svg>