<svg width="100" height="100" viewBox="0 0 100 100" xmlns="http://www.w3.org/2000/svg"><defs><linearGradient id="analyticGrad" x1="0%" y1="0%" x2="100%" y2="100%"><stop offset="0%" stop-color="#7FE6FF"/><stop offset="100%" stop-color="#35D0FF"/></linearGradient></defs><rect x="10" y="10" width="80" height="80" rx="18" fill="#FFFFFF" stroke="#D6E4FF" stroke-width="1.5"/><rect x="26" y="22" width="48" height="50" rx="8" fill="url(#analyticGrad)"/><rect x="34" y="30" width="18" height="3.2" rx="1.6" fill="#FFFFFF" opacity="0.95"/><rect x="34" y="38" width="22" height="3.2" rx="1.6" fill="#FFFFFF" opacity="0.82"/><rect x="35" y="52" width="6" height="10" rx="2.5" fill="#FFFFFF" opacity="0.88"/><rect x="45" y="48" width="6" height="14" rx="2.5" fill="#FFFFFF" opacity="0.95"/><rect x="55" y="44" width="6" height="18" rx="2.5" fill="#FFFFFF" opacity="1"/><path d="M60 60 L70 50 L73 53 L63 63 Z" fill="#FFFFFF"/><polygon points="70,50 74,49 73,53" fill="#FFFFFF"/><rect x="30" y="76" width="40" height="5.5" rx="2.7" fill="url(#analyticGrad)" opacity="0.18"/></svg>