<svg width="100" height="100" viewBox="0 0 100 100" xmlns="http://www.w3.org/2000/svg"><defs><linearGradient id="journalEntryGrad" x1="0%" y1="0%" x2="100%" y2="100%"><stop offset="0%" stop-color="#7FE6FF"/><stop offset="100%" stop-color="#35D0FF"/></linearGradient></defs><rect x="10" y="10" width="80" height="80" rx="18" fill="#FFFFFF" stroke="#D6E4FF" stroke-width="1.5"/><rect x="24" y="22" width="52" height="50" rx="8" fill="url(#journalEntryGrad)"/><rect x="24" y="22" width="8" height="50" rx="8" fill="#1B3B6E" opacity="0.18"/><rect x="38" y="31" width="10" height="3.2" rx="1.6" fill="#FFFFFF" opacity="0.95"/><rect x="54" y="31" width="12" height="3.2" rx="1.6" fill="#FFFFFF" opacity="0.9"/><rect x="38" y="40" width="14" height="3.2" rx="1.6" fill="#FFFFFF" opacity="0.85"/><rect x="56" y="40" width="10" height="3.2" rx="1.6" fill="#FFFFFF" opacity="0.8"/><rect x="38" y="49" width="11" height="3.2" rx="1.6" fill="#FFFFFF" opacity="0.78"/><rect x="54" y="49" width="12" height="3.2" rx="1.6" fill="#FFFFFF" opacity="0.88"/><rect x="51" y="29" width="2.4" height="28" rx="1.2" fill="#FFFFFF" opacity="0.65"/><circle cx="64" cy="62" r="9.5" fill="#FFFFFF" stroke="url(#journalEntryGrad)" stroke-width="2.8"/><path d="M60.5 62.2 L63.5 65.2 L68.8 59.8" fill="none" stroke="url(#journalEntryGrad)" stroke-width="2.8" stroke-linecap="round" stroke-linejoin="round"/><rect x="30" y="76" width="40" height="5.5" rx="2.7" fill="url(#journalEntryGrad)" opacity="0.18"/></svg>