<svg width="100" height="100" viewBox="0 0 100 100" xmlns="http://www.w3.org/2000/svg">
  <defs>
    <linearGradient id="reconcileActionGrad" x1="0%" y1="0%" x2="100%" y2="100%">
      <stop offset="0%" stop-color="#7FE6FF"/>
      <stop offset="100%" stop-color="#35D0FF"/>
    </linearGradient>
    <linearGradient id="panelGlow" x1="0%" y1="0%" x2="0%" y2="100%">
      <stop offset="0%" stop-color="#FFFFFF" stop-opacity="0.22"/>
      <stop offset="100%" stop-color="#FFFFFF" stop-opacity="0"/>
    </linearGradient>
  </defs>
  <rect x="10" y="10" width="80" height="80" rx="18" fill="#FFFFFF" stroke="#D6E4FF" stroke-width="1.5"/>
  <rect x="22" y="20" width="56" height="54" rx="10" fill="url(#reconcileActionGrad)"/>
  <rect x="22" y="20" width="56" height="15" rx="10" fill="url(#panelGlow)"/>
  <rect x="27" y="34" width="15" height="18" rx="3.2" fill="#FFFFFF" opacity="0.95"/>
  <rect x="30" y="38" width="8" height="2.3" rx="1.1" fill="url(#reconcileActionGrad)"/>
  <rect x="30" y="43" width="6" height="2.3" rx="1.1" fill="url(#reconcileActionGrad)" opacity="0.6"/>
  <rect x="58" y="34" width="15" height="18" rx="3.2" fill="#FFFFFF" opacity="0.95"/>
  <rect x="61" y="38" width="8" height="2.3" rx="1.1" fill="url(#reconcileActionGrad)"/>
  <rect x="61" y="43" width="6" height="2.3" rx="1.1" fill="url(#reconcileActionGrad)" opacity="0.6"/>
  <path d="M42 42 C45 41, 47 40.5, 49 40.5" fill="none" stroke="#FFFFFF" stroke-width="2.4" stroke-linecap="round"/>
  <path d="M46.5 38.5 L50.5 40.5 L46.5 42.8" fill="none" stroke="#FFFFFF" stroke-width="2.4" stroke-linecap="round" stroke-linejoin="round"/>
  <path d="M58 46 C55 47, 53 47.5, 51 47.5" fill="none" stroke="#FFFFFF" stroke-width="2.4" stroke-linecap="round"/>
  <path d="M53.5 45.2 L49.5 47.5 L53.5 49.5" fill="none" stroke="#FFFFFF" stroke-width="2.4" stroke-linecap="round" stroke-linejoin="round"/>
  <circle cx="50" cy="60" r="10" fill="#FFFFFF"/>
  <path d="M45 60 L48.8 63.8 L55.8 56.4" fill="none" stroke="url(#reconcileActionGrad)" stroke-width="3.1" stroke-linecap="round" stroke-linejoin="round"/>
  <rect x="30" y="77" width="40" height="5" rx="2.5" fill="url(#reconcileActionGrad)" opacity="0.18"/>
</svg>