<svg width="100" height="100" viewBox="0 0 100 100" xmlns="http://www.w3.org/2000/svg"><defs><linearGradient id="generalLedgerGrad" x1="0%" y1="0%" x2="100%" y2="100%"><stop offset="0%" stop-color="#7FE6FF"/><stop offset="100%" stop-color="#35D0FF"/></linearGradient></defs><rect x="10" y="10" width="80" height="80" rx="18" fill="#FFFFFF" stroke="#D6E4FF" stroke-width="1.5"/><rect x="23" y="22" width="54" height="50" rx="8" fill="url(#generalLedgerGrad)"/><rect x="23" y="22" width="8" height="50" rx="8" fill="#1B3B6E" opacity="0.16"/><rect x="37" y="30" width="22" height="3.4" rx="1.7" fill="#FFFFFF" opacity="0.95"/><rect x="37" y="40" width="12" height="3.2" rx="1.6" fill="#FFFFFF" opacity="0.86"/><rect x="54" y="40" width="13" height="3.2" rx="1.6" fill="#FFFFFF" opacity="0.92"/><rect x="37" y="48" width="16" height="3.2" rx="1.6" fill="#FFFFFF" opacity="0.78"/><rect x="57" y="48" width="10" height="3.2" rx="1.6" fill="#FFFFFF" opacity="0.86"/><rect x="51" y="38" width="2.3" height="18" rx="1.1" fill="#FFFFFF" opacity="0.62"/><rect x="35" y="59" width="30" height="7" rx="3.5" fill="#FFFFFF" opacity="0.92"/><rect x="39" y="61.2" width="10" height="2.4" rx="1.2" fill="url(#generalLedgerGrad)" opacity="0.9"/><rect x="53" y="61.2" width="8" height="2.4" rx="1.2" fill="url(#generalLedgerGrad)" opacity="0.7"/><rect x="30" y="76" width="40" height="5.5" rx="2.7" fill="url(#generalLedgerGrad)" opacity="0.18"/></svg>