<svg width="100" height="100" viewBox="0 0 100 100" xmlns="http://www.w3.org/2000/svg"><defs><linearGradient id="partnerLedgerGrad" x1="0%" y1="0%" x2="100%" y2="100%"><stop offset="0%" stop-color="#7FE6FF"/><stop offset="100%" stop-color="#35D0FF"/></linearGradient></defs><rect x="10" y="10" width="80" height="80" rx="18" fill="#FFFFFF" stroke="#D6E4FF" stroke-width="1.5"/><rect x="24" y="22" width="52" height="50" rx="8" fill="url(#partnerLedgerGrad)"/><rect x="24" y="22" width="8" height="50" rx="8" fill="#1B3B6E" opacity="0.16"/><rect x="38" y="32" width="16" height="3.2" rx="1.6" fill="#FFFFFF" opacity="0.95"/><rect x="38" y="40" width="20" height="3.2" rx="1.6" fill="#FFFFFF" opacity="0.85"/><rect x="38" y="48" width="14" height="3.2" rx="1.6" fill="#FFFFFF" opacity="0.78"/><circle cx="62" cy="56" r="9" fill="#FFFFFF" stroke="url(#partnerLedgerGrad)" stroke-width="3"/><circle cx="62" cy="54" r="2.6" fill="url(#partnerLedgerGrad)"/><path d="M57 60 C58.5 57.5 60.5 56.5 62 56.5 C63.5 56.5 65.5 57.5 67 60" fill="none" stroke="url(#partnerLedgerGrad)" stroke-width="2.4" stroke-linecap="round"/><rect x="30" y="76" width="40" height="5.5" rx="2.7" fill="url(#partnerLedgerGrad)" opacity="0.18"/></svg>