<svg width="100" height="100" viewBox="0 0 100 100" xmlns="http://www.w3.org/2000/svg"><defs><linearGradient id="chartAccountsGrad" x1="0%" y1="0%" x2="100%" y2="100%"><stop offset="0%" stop-color="#7FE6FF"/><stop offset="100%" stop-color="#35D0FF"/></linearGradient></defs><rect x="10" y="10" width="80" height="80" rx="18" fill="#FFFFFF" stroke="#D6E4FF" stroke-width="1.5"/><rect x="24" y="22" width="52" height="50" rx="8" fill="url(#chartAccountsGrad)"/><rect x="24" y="22" width="8" height="50" rx="8" fill="#1B3B6E" opacity="0.16"/><rect x="41" y="30" width="18" height="7" rx="3.5" fill="#FFFFFF" opacity="0.96"/><rect x="49" y="37" width="2.5" height="8" rx="1.2" fill="#FFFFFF" opacity="0.8"/><rect x="34" y="45" width="32" height="2.5" rx="1.2" fill="#FFFFFF" opacity="0.8"/><rect x="35" y="47" width="2.5" height="8" rx="1.2" fill="#FFFFFF" opacity="0.76"/><rect x="49" y="47" width="2.5" height="8" rx="1.2" fill="#FFFFFF" opacity="0.76"/><rect x="63" y="47" width="2.5" height="8" rx="1.2" fill="#FFFFFF" opacity="0.76"/><rect x="29" y="55" width="14" height="6.5" rx="3.2" fill="#FFFFFF" opacity="0.9"/><rect x="43" y="55" width="14" height="6.5" rx="3.2" fill="#FFFFFF" opacity="0.95"/><rect x="57" y="55" width="14" height="6.5" rx="3.2" fill="#FFFFFF" opacity="0.9"/><rect x="30" y="76" width="40" height="5.5" rx="2.7" fill="url(#chartAccountsGrad)" opacity="0.18"/></svg>