<svg version="1.1" id="Layer_1" xmlns="http://www.w3.org/2000/svg" xmlns:xlink="http://www.w3.org/1999/xlink" x="0px" y="0px"
	 width="100%" viewBox="0 0 2048 2048" enable-background="new 0 0 2048 2048" xml:space="preserve">
<path fill="#FFFFFF" opacity="1.000000" stroke="none" 
	d="
M2049.000000,733.000000 
	C2049.000000,1172.000000 2049.000000,1610.500000 2049.000000,2049.000000 
	C1366.333374,2049.000000 683.666687,2049.000000 1.000000,2049.000000 
	C1.000000,1366.333374 1.000000,683.666687 1.000000,1.000000 
	C683.666687,1.000000 1366.333374,1.000000 2049.000000,1.000000 
	C2049.000000,244.833328 2049.000000,488.666656 2049.000000,733.000000 
M1865.004150,1263.500000 
	C1864.999146,1205.335815 1865.068604,1147.171631 1864.975342,1089.007568 
	C1864.686401,908.710632 1864.428589,728.413452 1863.817383,548.117554 
	C1863.772095,534.778381 1861.914551,521.267578 1859.293579,508.157623 
	C1855.595215,489.658691 1851.390137,471.136566 1845.562500,453.222626 
	C1839.676880,435.130493 1832.498413,417.304596 1824.160278,400.203644 
	C1813.699951,378.749878 1800.882080,358.581543 1786.419189,339.439301 
	C1767.372314,314.229736 1745.943726,291.476013 1721.250488,271.748657 
	C1702.166870,256.502716 1682.170166,242.555328 1660.663696,231.049286 
	C1626.668823,212.861786 1590.770264,199.899155 1552.755127,192.568970 
	C1528.365601,187.866119 1503.871216,185.119614 1479.123169,185.061508 
	C1394.290771,184.862305 1309.457886,184.979095 1224.625122,184.985031 
	C1002.960083,185.000534 781.295044,185.010818 559.630005,185.088379 
	C552.831299,185.090759 545.946777,185.261734 539.250549,186.305527 
	C520.292358,189.260696 501.278046,192.097260 482.543274,196.165802 
	C468.331360,199.252106 454.203033,203.331772 440.602753,208.466522 
	C424.816650,214.426559 409.464813,221.642990 394.252472,228.992935 
	C368.699646,241.338943 345.705017,257.802734 324.039429,275.899933 
	C310.692200,287.048859 298.512238,299.674835 286.421783,312.228577 
	C271.209534,328.023773 257.721741,345.333954 246.213287,363.996582 
	C237.857162,377.547272 229.598709,391.333008 223.138626,405.834473 
	C214.796356,424.560944 207.727676,443.916809 201.204361,463.368439 
	C197.272339,475.093231 195.300858,487.489288 192.655533,499.628845 
	C187.551208,523.053040 185.106903,546.841980 185.095215,570.748657 
	C184.954773,857.746521 184.957916,1144.744507 185.087082,1431.742432 
	C185.097855,1455.677002 186.026001,1479.621948 187.011795,1503.542236 
	C187.992249,1527.332764 192.718292,1550.597778 198.786301,1573.542358 
	C207.448196,1606.294800 220.666916,1637.129761 237.493317,1666.607788 
	C253.335587,1694.361694 272.182495,1719.840088 294.488617,1742.429077 
	C311.004608,1759.154663 328.784576,1774.991455 347.737000,1788.850952 
	C366.830994,1802.814331 387.517212,1814.900391 408.513977,1825.881226 
	C431.484589,1837.894409 456.180176,1846.142212 481.351379,1852.619507 
	C510.240021,1860.053345 539.544983,1864.262695 569.446533,1864.130005 
	C601.886597,1863.985962 634.327698,1864.101318 666.768372,1864.101929 
	C687.601562,1864.102295 708.434753,1864.098389 729.267944,1864.098511 
	C746.542786,1864.098511 763.818298,1864.003662 781.092163,1864.135498 
	C793.671448,1864.231445 806.248535,1864.841064 818.826355,1864.832642 
	C832.404907,1864.823608 845.982605,1864.174805 859.561646,1864.134033 
	C894.837280,1864.028198 930.113525,1864.067749 965.389404,1864.141602 
	C970.860779,1864.153076 976.333374,1864.917114 981.801514,1864.870728 
	C995.182922,1864.757080 1008.561829,1864.149048 1021.942200,1864.135010 
	C1095.351562,1864.057861 1168.760986,1864.099731 1242.170410,1864.100586 
	C1263.118042,1864.100830 1284.065674,1864.100098 1305.013306,1864.100098 
	C1332.742188,1864.100098 1360.471191,1864.102295 1388.200073,1864.099609 
	C1418.533203,1864.096680 1448.884644,1864.730225 1479.193237,1863.864624 
	C1500.375610,1863.259521 1521.667969,1861.731201 1542.611084,1858.604736 
	C1577.327759,1853.421753 1610.160522,1841.577026 1641.630859,1826.135986 
	C1668.117798,1813.140015 1692.806030,1797.353027 1715.919312,1778.889404 
	C1736.807739,1762.203125 1755.823486,1743.763062 1773.068237,1723.421631 
	C1793.542236,1699.271118 1810.983276,1673.056030 1825.026367,1644.704224 
	C1840.141602,1614.187744 1850.681763,1582.036377 1857.259033,1548.619873 
	C1862.431519,1522.340210 1865.078979,1495.814331 1865.038696,1468.998535 
	C1864.936279,1400.832520 1865.003418,1332.666138 1865.004150,1263.500000 
z"/>
<path fill="#A3E4ED" opacity="1.000000" stroke="none" 
	d="
M1865.003418,1264.000000 
	C1865.003418,1332.666138 1864.936279,1400.832520 1865.038696,1468.998535 
	C1865.078979,1495.814331 1862.431519,1522.340210 1857.259033,1548.619873 
	C1850.681763,1582.036377 1840.141602,1614.187744 1825.026367,1644.704224 
	C1810.983276,1673.056030 1793.542236,1699.271118 1773.068237,1723.421631 
	C1755.823486,1743.763062 1736.807739,1762.203125 1715.919312,1778.889404 
	C1692.806030,1797.353027 1668.117798,1813.140015 1641.630859,1826.135986 
	C1610.160522,1841.577026 1577.327759,1853.421753 1542.611084,1858.604736 
	C1521.667969,1861.731201 1500.375610,1863.259521 1479.193237,1863.864624 
	C1448.884644,1864.730225 1418.533203,1864.096680 1388.200073,1864.099609 
	C1360.471191,1864.102295 1332.742188,1864.100098 1305.013306,1864.100098 
	C1284.065674,1864.100098 1263.118042,1864.100830 1242.170410,1864.100586 
	C1168.760986,1864.099731 1095.351562,1864.057861 1021.942200,1864.135010 
	C1008.561829,1864.149048 995.182922,1864.757080 981.801514,1864.870728 
	C976.333374,1864.917114 970.860779,1864.153076 965.389404,1864.141602 
	C930.113525,1864.067749 894.837280,1864.028198 859.561646,1864.134033 
	C845.982605,1864.174805 832.404907,1864.823608 818.826355,1864.832642 
	C806.248535,1864.841064 793.671448,1864.231445 781.092163,1864.135498 
	C763.818298,1864.003662 746.542786,1864.098511 729.267944,1864.098511 
	C708.434753,1864.098389 687.601562,1864.102295 666.768372,1864.101929 
	C634.327698,1864.101318 601.886597,1863.985962 569.446533,1864.130005 
	C539.544983,1864.262695 510.240021,1860.053345 481.351379,1852.619507 
	C456.180176,1846.142212 431.484589,1837.894409 408.513977,1825.881226 
	C387.517212,1814.900391 366.830994,1802.814331 347.737000,1788.850952 
	C328.784576,1774.991455 311.004608,1759.154663 294.488617,1742.429077 
	C272.182495,1719.840088 253.335587,1694.361694 237.493317,1666.607788 
	C220.666916,1637.129761 207.448196,1606.294800 198.786301,1573.542358 
	C192.718292,1550.597778 187.992249,1527.332764 187.011795,1503.542236 
	C186.026001,1479.621948 185.097855,1455.677002 185.087082,1431.742432 
	C184.957916,1144.744507 184.954773,857.746521 185.095215,570.748657 
	C185.106903,546.841980 187.551208,523.053040 192.655533,499.628845 
	C195.300858,487.489288 197.272339,475.093231 201.204361,463.368439 
	C207.727676,443.916809 214.796356,424.560944 223.138626,405.834473 
	C229.598709,391.333008 237.857162,377.547272 246.213287,363.996582 
	C257.721741,345.333954 271.209534,328.023773 286.421783,312.228577 
	C298.512238,299.674835 310.692200,287.048859 324.039429,275.899933 
	C345.705017,257.802734 368.699646,241.338943 394.252472,228.992935 
	C409.464813,221.642990 424.816650,214.426559 440.602753,208.466522 
	C454.203033,203.331772 468.331360,199.252106 482.543274,196.165802 
	C501.278046,192.097260 520.292358,189.260696 539.250549,186.305527 
	C545.946777,185.261734 552.831299,185.090759 559.630005,185.088379 
	C781.295044,185.010818 1002.960083,185.000534 1224.625122,184.985031 
	C1309.457886,184.979095 1394.290771,184.862305 1479.123169,185.061508 
	C1503.871216,185.119614 1528.365601,187.866119 1552.755127,192.568970 
	C1590.770264,199.899155 1626.668823,212.861786 1660.663696,231.049286 
	C1682.170166,242.555328 1702.166870,256.502716 1721.250488,271.748657 
	C1745.943726,291.476013 1767.372314,314.229736 1786.419189,339.439301 
	C1800.882080,358.581543 1813.699951,378.749878 1824.160278,400.203644 
	C1832.498413,417.304596 1839.676880,435.130493 1845.562500,453.222626 
	C1851.390137,471.136566 1855.595215,489.658691 1859.293579,508.157623 
	C1861.914551,521.267578 1863.772095,534.778381 1863.817383,548.117554 
	C1864.428589,728.413452 1864.686401,908.710632 1864.975342,1089.007568 
	C1865.068604,1147.171631 1864.999146,1205.335815 1865.003418,1264.000000 
M221.008011,1292.500000 
	C221.007874,1350.494141 220.788544,1408.489502 221.144272,1466.481445 
	C221.247864,1483.369995 221.949875,1500.393311 224.267136,1517.092651 
	C226.808212,1535.404907 230.763916,1553.620239 235.554291,1571.488770 
	C239.275589,1585.369629 244.313766,1599.079834 250.407196,1612.097900 
	C258.705475,1629.826416 267.438171,1647.549683 278.011658,1663.969849 
	C295.107544,1690.519287 315.330902,1714.763672 339.222961,1735.645996 
	C349.206055,1744.371582 359.194397,1753.223022 370.022064,1760.817139 
	C383.451569,1770.236328 397.562012,1778.738525 411.725830,1787.044189 
	C431.719330,1798.768311 453.310150,1807.165161 475.431061,1813.606812 
	C493.019958,1818.728760 511.225708,1821.916382 529.311707,1825.082275 
	C541.343445,1827.188599 553.644653,1828.811768 565.828369,1828.832886 
	C712.989624,1829.086792 860.151550,1829.131592 1007.313049,1828.969849 
	C1169.601440,1828.791382 1331.889648,1828.404907 1494.177124,1827.872803 
	C1505.219604,1827.836548 1516.365479,1826.454468 1527.266968,1824.565430 
	C1541.285034,1822.136475 1555.268799,1819.153198 1568.972656,1815.347290 
	C1591.728516,1809.027710 1613.970825,1801.066406 1634.503052,1789.174316 
	C1650.564819,1779.871338 1666.960327,1770.899780 1681.945923,1760.040161 
	C1705.943237,1742.650513 1727.498657,1722.321533 1746.236206,1699.237549 
	C1767.014771,1673.639282 1785.164795,1646.321533 1798.411499,1616.010254 
	C1807.733765,1594.678955 1815.377197,1572.769897 1820.588135,1550.004272 
	C1825.338867,1529.249634 1828.791992,1508.229370 1828.809448,1487.050171 
	C1829.062988,1178.894165 1829.004883,870.737732 1828.897095,562.581543 
	C1828.893677,552.828369 1828.264282,542.960815 1826.692139,533.348572 
	C1824.026123,517.050049 1820.628418,500.856903 1817.078735,484.720520 
	C1811.588989,459.764893 1801.837402,436.349884 1790.307129,413.647034 
	C1775.866089,385.213348 1757.738403,359.280914 1736.209839,335.808563 
	C1719.944824,318.075165 1702.259766,301.742310 1682.515991,287.955414 
	C1669.676514,278.989899 1656.087036,271.056976 1642.560547,263.126831 
	C1621.539062,250.802521 1598.837769,242.196625 1575.617676,235.218811 
	C1539.647217,224.409286 1502.629395,220.311859 1465.154663,220.070312 
	C1447.369751,219.955688 1429.583496,220.051407 1411.797852,220.051849 
	C1392.528931,220.052322 1373.259766,219.978363 1353.991211,220.064575 
	C1085.074341,221.267807 816.145264,217.533585 547.237610,222.066818 
	C539.141174,222.203323 530.956299,222.865967 523.000977,224.316467 
	C509.488312,226.780243 496.059814,229.798462 482.714417,233.067215 
	C457.938965,239.135590 434.057251,248.074554 411.868622,260.442383 
	C393.234009,270.829193 375.607361,283.150452 358.142212,295.476471 
	C337.565582,309.998474 319.958557,327.909698 303.866302,347.213623 
	C288.449280,365.707581 275.109344,385.596771 263.409088,406.730164 
	C251.774063,427.745758 243.145493,449.942230 235.624420,472.542084 
	C231.367126,485.334747 228.804489,498.851074 226.948318,512.245117 
	C224.269638,531.574524 221.292068,551.086243 221.261169,570.524658 
	C220.879089,810.849365 221.009750,1051.174805 221.008011,1292.500000 
z"/>
<path fill="#DDFBFD" opacity="1.000000" stroke="none" 
	d="
M221.008118,1292.000000 
	C221.009750,1051.174805 220.879089,810.849365 221.261169,570.524658 
	C221.292068,551.086243 224.269638,531.574524 226.948318,512.245117 
	C228.804489,498.851074 231.367126,485.334747 235.624420,472.542084 
	C243.145493,449.942230 251.774063,427.745758 263.409088,406.730164 
	C275.109344,385.596771 288.449280,365.707581 303.866302,347.213623 
	C319.958557,327.909698 337.565582,309.998474 358.142212,295.476471 
	C375.607361,283.150452 393.234009,270.829193 411.868622,260.442383 
	C434.057251,248.074554 457.938965,239.135590 482.714417,233.067215 
	C496.059814,229.798462 509.488312,226.780243 523.000977,224.316467 
	C530.956299,222.865967 539.141174,222.203323 547.237610,222.066818 
	C816.145264,217.533585 1085.074341,221.267807 1353.991211,220.064575 
	C1373.259766,219.978363 1392.528931,220.052322 1411.797852,220.051849 
	C1429.583496,220.051407 1447.369751,219.955688 1465.154663,220.070312 
	C1502.629395,220.311859 1539.647217,224.409286 1575.617676,235.218811 
	C1598.837769,242.196625 1621.539062,250.802521 1642.560547,263.126831 
	C1656.087036,271.056976 1669.676514,278.989899 1682.515991,287.955414 
	C1702.259766,301.742310 1719.944824,318.075165 1736.209839,335.808563 
	C1757.738403,359.280914 1775.866089,385.213348 1790.307129,413.647034 
	C1801.837402,436.349884 1811.588989,459.764893 1817.078735,484.720520 
	C1820.628418,500.856903 1824.026123,517.050049 1826.692139,533.348572 
	C1828.264282,542.960815 1828.893677,552.828369 1828.897095,562.581543 
	C1829.004883,870.737732 1829.062988,1178.894165 1828.809448,1487.050171 
	C1828.791992,1508.229370 1825.338867,1529.249634 1820.588135,1550.004272 
	C1815.377197,1572.769897 1807.733765,1594.678955 1798.411499,1616.010254 
	C1785.164795,1646.321533 1767.014771,1673.639282 1746.236206,1699.237549 
	C1727.498657,1722.321533 1705.943237,1742.650513 1681.945923,1760.040161 
	C1666.960327,1770.899780 1650.564819,1779.871338 1634.503052,1789.174316 
	C1613.970825,1801.066406 1591.728516,1809.027710 1568.972656,1815.347290 
	C1555.268799,1819.153198 1541.285034,1822.136475 1527.266968,1824.565430 
	C1516.365479,1826.454468 1505.219604,1827.836548 1494.177124,1827.872803 
	C1331.889648,1828.404907 1169.601440,1828.791382 1007.313049,1828.969849 
	C860.151550,1829.131592 712.989624,1829.086792 565.828369,1828.832886 
	C553.644653,1828.811768 541.343445,1827.188599 529.311707,1825.082275 
	C511.225708,1821.916382 493.019958,1818.728760 475.431061,1813.606812 
	C453.310150,1807.165161 431.719330,1798.768311 411.725830,1787.044189 
	C397.562012,1778.738525 383.451569,1770.236328 370.022064,1760.817139 
	C359.194397,1753.223022 349.206055,1744.371582 339.222961,1735.645996 
	C315.330902,1714.763672 295.107544,1690.519287 278.011658,1663.969849 
	C267.438171,1647.549683 258.705475,1629.826416 250.407196,1612.097900 
	C244.313766,1599.079834 239.275589,1585.369629 235.554291,1571.488770 
	C230.763916,1553.620239 226.808212,1535.404907 224.267136,1517.092651 
	C221.949875,1500.393311 221.247864,1483.369995 221.144272,1466.481445 
	C220.788544,1408.489502 221.007874,1350.494141 221.008118,1292.000000 
M609.992371,1456.515503 
	C632.824158,1468.862061 657.151123,1475.056885 683.174561,1475.049438 
	C911.478638,1474.984131 1139.782715,1475.034180 1368.086792,1474.915283 
	C1376.856934,1474.910645 1385.767090,1474.287598 1394.371826,1472.672974 
	C1431.779053,1465.653198 1462.795776,1447.134888 1486.984619,1417.972168 
	C1511.119629,1388.874512 1522.838867,1354.772095 1522.862061,1317.056641 
	C1523.008423,1079.253906 1522.984741,841.451050 1522.795654,603.648438 
	C1522.787109,592.926025 1521.506226,582.025513 1519.328979,571.516418 
	C1511.850464,535.416199 1493.956665,505.375519 1465.319336,481.875122 
	C1438.105225,459.542816 1406.893555,447.159088 1371.778076,447.113495 
	C1144.474243,446.818176 917.170044,446.936707 689.865906,446.984772 
	C681.231567,446.986603 672.542847,447.160889 663.972595,448.102264 
	C630.418762,451.787933 601.374390,465.659607 577.022766,488.807312 
	C544.153503,520.051575 527.109924,558.641357 527.077515,604.041016 
	C526.908875,840.177246 527.068176,1076.313721 526.906433,1312.449951 
	C526.886719,1341.216431 533.096924,1368.173584 546.781860,1393.409668 
	C561.453125,1420.464355 582.586609,1441.127441 609.992371,1456.515503 
M1381.448486,1673.000000 
	C1386.872314,1671.966919 1392.537720,1671.594849 1397.655029,1669.723755 
	C1403.306519,1667.657471 1408.899048,1664.813110 1413.714600,1661.229370 
	C1420.211060,1656.394897 1425.009888,1649.919067 1429.028198,1642.688354 
	C1435.346069,1631.319458 1436.508057,1619.049805 1434.489502,1606.965454 
	C1432.366699,1594.256592 1426.259155,1582.867554 1415.888794,1574.364136 
	C1406.831787,1566.937622 1396.763672,1561.120850 1384.912720,1561.113037 
	C1146.587036,1560.957275 908.261169,1560.977661 669.935425,1561.096069 
	C662.421387,1561.099731 654.892761,1562.062256 647.840393,1565.513306 
	C630.074280,1574.207153 619.055969,1588.051636 615.763428,1607.543945 
	C613.217651,1622.615356 615.591614,1636.943726 624.995300,1649.449951 
	C630.238708,1656.423096 636.787170,1661.726807 644.525818,1666.203491 
	C652.199768,1670.642822 659.891724,1672.981934 668.485046,1672.982788 
	C905.810852,1673.004272 1143.136719,1673.000000 1381.448486,1673.000000 
z"/>
<path fill="#5EC9DB" opacity="1.000000" stroke="none" 
	d="
M609.667053,1456.338135 
	C582.586609,1441.127441 561.453125,1420.464355 546.781860,1393.409668 
	C533.096924,1368.173584 526.886719,1341.216431 526.906433,1312.449951 
	C527.068176,1076.313721 526.908875,840.177246 527.077515,604.041016 
	C527.109924,558.641357 544.153503,520.051575 577.022766,488.807312 
	C601.374390,465.659607 630.418762,451.787933 663.972595,448.102264 
	C672.542847,447.160889 681.231567,446.986603 689.865906,446.984772 
	C917.170044,446.936707 1144.474243,446.818176 1371.778076,447.113495 
	C1406.893555,447.159088 1438.105225,459.542816 1465.319336,481.875122 
	C1493.956665,505.375519 1511.850464,535.416199 1519.328979,571.516418 
	C1521.506226,582.025513 1522.787109,592.926025 1522.795654,603.648438 
	C1522.984741,841.451050 1523.008423,1079.253906 1522.862061,1317.056641 
	C1522.838867,1354.772095 1511.119629,1388.874512 1486.984619,1417.972168 
	C1462.795776,1447.134888 1431.779053,1465.653198 1394.371826,1472.672974 
	C1385.767090,1474.287598 1376.856934,1474.910645 1368.086792,1474.915283 
	C1139.782715,1475.034180 911.478638,1474.984131 683.174561,1475.049438 
	C657.151123,1475.056885 632.824158,1468.862061 609.667053,1456.338135 
M1493.009766,1320.452148 
	C1493.021484,1232.620483 1493.036743,1144.788940 1493.044312,1056.957275 
	C1493.057373,906.627625 1493.084473,756.297974 1493.017700,605.968323 
	C1493.014526,598.841431 1492.743164,591.620239 1491.601196,584.605042 
	C1487.290039,558.123535 1476.110229,534.945129 1457.298706,515.591736 
	C1433.354248,490.957672 1404.456055,477.033722 1369.920288,477.008179 
	C1140.592773,476.838501 911.264893,476.929413 681.937134,476.925018 
	C644.759338,476.924316 614.154846,491.653870 589.533752,518.931396 
	C567.836548,542.969727 556.881836,571.360168 556.890442,603.936951 
	C556.953491,842.097778 556.946716,1080.258667 557.010193,1318.419434 
	C557.011536,1323.388184 557.278137,1328.399414 557.949951,1333.318604 
	C562.661194,1367.815430 578.377686,1396.279053 605.573975,1418.066895 
	C628.284485,1436.260864 654.228882,1445.165527 683.547546,1445.146118 
	C912.875122,1444.994873 1142.203003,1445.131104 1371.530273,1444.817261 
	C1382.624756,1444.802124 1394.138916,1442.719971 1404.720093,1439.311157 
	C1428.434692,1431.671387 1448.570801,1418.229370 1464.302856,1398.439453 
	C1482.282593,1375.821899 1492.284058,1350.400391 1493.009766,1320.452148 
z"/>
<path fill="#C0F1F6" opacity="1.000000" stroke="none" 
	d="
M1380.955566,1673.000000 
	C1143.136719,1673.000000 905.810852,1673.004272 668.485046,1672.982788 
	C659.891724,1672.981934 652.199768,1670.642822 644.525818,1666.203491 
	C636.787170,1661.726807 630.238708,1656.423096 624.995300,1649.449951 
	C615.591614,1636.943726 613.217651,1622.615356 615.763428,1607.543945 
	C619.055969,1588.051636 630.074280,1574.207153 647.840393,1565.513306 
	C654.892761,1562.062256 662.421387,1561.099731 669.935425,1561.096069 
	C908.261169,1560.977661 1146.587036,1560.957275 1384.912720,1561.113037 
	C1396.763672,1561.120850 1406.831787,1566.937622 1415.888794,1574.364136 
	C1426.259155,1582.867554 1432.366699,1594.256592 1434.489502,1606.965454 
	C1436.508057,1619.049805 1435.346069,1631.319458 1429.028198,1642.688354 
	C1425.009888,1649.919067 1420.211060,1656.394897 1413.714600,1661.229370 
	C1408.899048,1664.813110 1403.306519,1667.657471 1397.655029,1669.723755 
	C1392.537720,1671.594849 1386.872314,1671.966919 1380.955566,1673.000000 
z"/>
<path fill="#BFF1F6" opacity="1.000000" stroke="none" 
	d="
M1493.007324,1320.943115 
	C1492.284058,1350.400391 1482.282593,1375.821899 1464.302856,1398.439453 
	C1448.570801,1418.229370 1428.434692,1431.671387 1404.720093,1439.311157 
	C1394.138916,1442.719971 1382.624756,1444.802124 1371.530273,1444.817261 
	C1142.203003,1445.131104 912.875122,1444.994873 683.547546,1445.146118 
	C654.228882,1445.165527 628.284485,1436.260864 605.573975,1418.066895 
	C578.377686,1396.279053 562.661194,1367.815430 557.949951,1333.318604 
	C557.278137,1328.399414 557.011536,1323.388184 557.010193,1318.419434 
	C556.946716,1080.258667 556.953491,842.097778 556.890442,603.936951 
	C556.881836,571.360168 567.836548,542.969727 589.533752,518.931396 
	C614.154846,491.653870 644.759338,476.924316 681.937134,476.925018 
	C911.264893,476.929413 1140.592773,476.838501 1369.920288,477.008179 
	C1404.456055,477.033722 1433.354248,490.957672 1457.298706,515.591736 
	C1476.110229,534.945129 1487.290039,558.123535 1491.601196,584.605042 
	C1492.743164,591.620239 1493.014526,598.841431 1493.017700,605.968323 
	C1493.084473,756.297974 1493.057373,906.627625 1493.044312,1056.957275 
	C1493.036743,1144.788940 1493.021484,1232.620483 1493.007324,1320.943115 
M1058.717896,642.907166 
	C1065.481689,635.635803 1065.372559,627.258301 1061.948730,618.796448 
	C1058.449341,610.148010 1051.491333,605.526550 1042.245605,605.037231 
	C1034.601807,604.632690 1026.920654,604.923462 1019.256042,604.923462 
	C912.283813,604.923828 805.311462,604.964539 698.339355,604.860229 
	C689.581116,604.851685 682.691284,607.846375 677.963562,615.118713 
	C672.835815,623.006409 672.389404,631.367920 676.900330,639.715088 
	C681.301941,647.860291 688.163208,652.037476 697.553772,652.034363 
	C758.038086,652.014221 818.522400,652.039307 879.006714,652.041992 
	C932.992737,652.044312 986.978699,652.039062 1040.964722,652.031250 
	C1048.230957,652.030212 1054.338623,649.794128 1058.000000,643.001099 
	C1058.000000,643.001099 1058.036011,643.057373 1058.717896,642.907166 
M1093.714722,972.578857 
	C1090.133667,976.196411 1086.590698,979.852722 1082.960571,983.420227 
	C1079.677612,986.646423 1076.299194,989.775635 1072.938965,992.019653 
	C1072.950806,967.861572 1072.966431,943.703552 1072.972778,919.545471 
	C1072.975708,908.313660 1065.696777,901.043823 1054.389526,901.039490 
	C1016.069946,901.024841 977.748230,901.249207 939.432129,900.884399 
	C929.337158,900.788269 921.760742,910.076355 921.838013,918.397644 
	C922.190674,956.380859 921.995605,994.369080 922.020447,1032.355469 
	C922.027893,1043.806641 928.196899,1049.953125 939.631104,1049.970581 
	C965.120605,1050.009644 990.610107,1050.036255 1015.839844,1050.688721 
	C991.755676,1073.973022 967.671509,1097.257324 943.498901,1120.627075 
	C933.288147,1110.556519 921.786560,1099.510620 910.639099,1088.118164 
	C902.678833,1079.982788 892.937378,1076.535767 881.966980,1076.156738 
	C864.481140,1075.552368 848.732361,1086.039795 841.116089,1102.963379 
	C834.161438,1118.416748 837.530212,1137.597168 849.819824,1150.158203 
	C862.864136,1163.490601 876.163635,1176.574097 889.399231,1189.718384 
	C893.760742,1194.049805 898.199768,1198.309204 902.729065,1202.464355 
	C909.790894,1208.942749 916.959961,1215.304199 923.680542,1222.443970 
	C923.124451,1223.744385 922.085938,1225.043701 922.082642,1226.345459 
	C921.992004,1262.178345 921.918091,1298.011841 922.068481,1333.844238 
	C922.104431,1342.422363 929.265259,1349.010010 937.701599,1349.011475 
	C977.534668,1349.017822 1017.368713,1348.862549 1057.200073,1349.123169 
	C1065.588989,1349.178101 1073.233521,1340.950317 1073.160767,1333.134155 
	C1072.795288,1293.804443 1073.003052,1254.469604 1072.991699,1215.136475 
	C1072.989502,1207.410767 1066.618774,1201.025024 1058.893188,1201.010132 
	C1035.894531,1200.965820 1012.895935,1200.954102 990.165710,1200.313965 
	C996.477417,1193.686279 1002.690552,1186.961182 1009.120789,1180.450562 
	C1023.639465,1165.750488 1038.274292,1151.165405 1052.845581,1136.517212 
	C1076.319946,1112.918945 1099.775635,1089.302002 1123.251221,1065.704834 
	C1129.811035,1059.111328 1136.413818,1052.560547 1143.035156,1046.831909 
	C1142.753906,1050.719116 1145.611206,1049.952026 1147.802979,1049.954102 
	C1173.458252,1049.977661 1199.117676,1049.694946 1224.767212,1050.076172 
	C1237.408447,1050.263916 1244.122437,1041.405640 1244.053101,1030.584106 
	C1243.819214,994.101746 1243.809082,957.616150 1244.028320,921.133606 
	C1244.109253,907.661499 1235.141968,901.224182 1224.775757,901.147156 
	C1185.628662,900.856140 1146.477783,900.984741 1107.328735,901.080139 
	C1100.447876,901.096863 1092.099121,909.571228 1092.068115,916.235596 
	C1091.988770,933.227722 1091.962036,950.220764 1092.080078,967.212219 
	C1092.091064,968.791443 1093.282959,970.362488 1093.714722,972.578857 
M977.500000,761.918152 
	C1026.656250,761.917358 1075.812378,761.937378 1124.968628,761.902100 
	C1138.241699,761.892639 1148.949951,751.616516 1149.032104,738.996216 
	C1149.129395,724.034607 1139.219238,714.106323 1123.919189,714.099548 
	C1035.105103,714.060059 946.291077,714.066711 857.477051,714.064636 
	C804.655212,714.063416 751.833252,714.045898 699.011536,714.112183 
	C691.222351,714.121948 684.142761,716.397156 679.190002,722.819641 
	C673.068054,730.758362 671.982605,739.518066 676.354858,748.606750 
	C680.889771,758.033630 688.923584,761.924744 699.060242,761.925842 
	C791.540161,761.936218 884.020081,761.924194 977.500000,761.918152 
M1412.848145,1040.057251 
	C1413.548462,1033.091553 1414.854126,1026.124756 1414.842163,1019.160278 
	C1414.795776,992.218689 1414.314331,965.278015 1414.030029,938.336548 
	C1413.958008,931.509277 1413.638184,924.654785 1414.106201,917.859192 
	C1414.717896,908.978760 1405.971558,901.102173 1397.567139,901.079651 
	C1357.765259,900.973206 1317.963013,901.001892 1278.161255,901.113098 
	C1275.980591,901.119202 1273.647461,901.990723 1271.652344,902.991638 
	C1264.562378,906.548828 1262.133179,913.013245 1262.108887,920.348999 
	C1261.984619,957.819214 1261.971069,995.290161 1262.086792,1032.760376 
	C1262.117432,1042.679199 1269.721680,1050.060303 1279.846191,1050.023315 
	C1318.814941,1049.880859 1357.784912,1049.931519 1396.754028,1050.015625 
	C1403.975830,1050.031250 1409.180664,1047.072754 1412.848145,1040.057251 
M896.392090,1346.055664 
	C899.895813,1341.792236 903.042664,1337.526611 903.026489,1331.489014 
	C902.923157,1292.844727 903.005981,1254.200195 902.979065,1215.555664 
	C902.972839,1206.615479 897.241516,1201.000488 888.296753,1200.999146 
	C847.486816,1200.992676 806.676941,1200.992798 765.867004,1201.010010 
	C759.489441,1201.012695 754.270142,1204.774292 752.633850,1210.917969 
	C751.747375,1214.246338 751.110657,1217.755371 751.100525,1221.185303 
	C750.997742,1255.998291 750.999878,1290.811890 751.117615,1325.624878 
	C751.131470,1329.731567 751.727417,1333.894897 752.560425,1337.927124 
	C753.926453,1344.540039 759.694641,1348.991943 766.501892,1348.995850 
	C806.812134,1349.018677 847.122498,1349.054932 887.432190,1348.902832 
	C890.240784,1348.892212 893.043762,1347.396240 896.392090,1346.055664 
M891.057861,902.145447 
	C889.169800,901.777527 887.282288,901.091675 885.393616,901.088562 
	C846.404175,901.024414 807.411133,901.313416 768.428101,900.808105 
	C760.450684,900.704651 750.934082,910.423279 750.965515,918.015625 
	C751.122925,956.004700 750.979858,993.994934 751.045471,1031.984619 
	C751.063416,1042.347900 758.614685,1049.906494 769.025330,1049.930298 
	C808.014587,1050.019653 847.004272,1050.024658 885.993591,1049.955200 
	C896.591797,1049.936279 903.008301,1043.278320 903.011047,1032.690918 
	C903.020935,994.701172 903.011841,956.711426 902.999084,918.721680 
	C902.996399,910.837524 899.110107,905.357971 891.057861,902.145447 
M1238.639160,1201.839233 
	C1234.915039,1198.894409 1230.919922,1197.006714 1225.933716,1197.115356 
	C1219.200195,1197.262207 1212.332275,1197.647949 1205.743042,1196.574463 
	C1194.779297,1194.788452 1183.976929,1194.524902 1173.065063,1196.438721 
	C1170.796509,1196.836548 1168.446533,1197.014648 1166.145874,1196.938232 
	C1159.746460,1196.725708 1153.350586,1196.007690 1146.958374,1196.064453 
	C1132.371216,1196.193726 1117.775879,1197.151733 1103.205933,1196.816284 
	C1094.522461,1196.616577 1090.549805,1201.116333 1090.113525,1209.557129 
	C1089.124023,1228.701172 1088.854004,1247.881958 1087.882568,1267.027100 
	C1087.610596,1272.385254 1086.078491,1277.712646 1084.749756,1282.959106 
	C1084.442383,1284.172852 1082.686646,1285.704834 1081.441162,1285.863403 
	C1078.110596,1286.287476 1077.921631,1288.345947 1077.999756,1290.843018 
	C1078.342896,1301.796753 1078.201050,1312.798462 1079.280396,1323.678955 
	C1079.669312,1327.600464 1077.604980,1334.850830 1086.121460,1334.260376 
	C1086.506592,1334.233643 1087.027954,1334.700928 1087.322388,1335.068970 
	C1089.775879,1338.135986 1092.837891,1340.928833 1094.470215,1344.391846 
	C1097.096436,1349.963745 1102.122681,1351.104248 1106.980225,1351.818848 
	C1112.773315,1352.671021 1118.529053,1353.357788 1124.317871,1354.422852 
	C1138.807007,1357.088379 1153.718140,1357.101440 1168.535278,1355.755005 
	C1174.900024,1355.176758 1181.330322,1355.338989 1187.729004,1355.113525 
	C1192.120728,1354.958740 1196.528931,1354.911255 1200.895386,1354.473022 
	C1210.884399,1353.470337 1220.830322,1351.741089 1230.836792,1351.312378 
	C1237.473267,1351.028076 1244.714478,1344.753418 1246.446167,1338.211426 
	C1247.531494,1334.111206 1251.196411,1328.245117 1254.421509,1327.738281 
	C1259.174683,1326.991333 1258.494629,1333.692627 1259.974121,1337.305908 
	C1260.033203,1337.450073 1259.981934,1337.636841 1259.995605,1337.802612 
	C1260.634888,1345.551270 1264.584595,1350.074219 1272.296265,1352.049927 
	C1276.449341,1353.113892 1280.556396,1354.356689 1284.700928,1355.455200 
	C1288.085571,1356.352295 1291.548462,1358.037598 1294.883789,1357.835815 
	C1305.362183,1357.202637 1315.795532,1355.830322 1326.249390,1354.775513 
	C1329.037109,1354.494141 1331.832397,1354.216797 1334.630493,1354.124512 
	C1342.030762,1353.880371 1349.434814,1353.755737 1356.836548,1353.552490 
	C1372.336792,1353.126587 1387.845093,1352.179810 1403.332642,1352.449829 
	C1411.377075,1352.589844 1411.490479,1353.604736 1414.307861,1346.242310 
	C1416.277466,1341.095459 1420.373413,1336.587524 1419.039307,1330.377563 
	C1418.312256,1326.993164 1417.798584,1323.530151 1417.572632,1320.077393 
	C1416.956177,1310.655151 1416.108643,1301.216431 1416.176392,1291.790161 
	C1416.240356,1282.874634 1417.386108,1273.968994 1417.989990,1265.054565 
	C1418.616455,1255.806885 1419.604004,1246.553467 1419.594360,1237.303467 
	C1419.587646,1230.866699 1421.960083,1224.427368 1419.217896,1217.852905 
	C1418.240845,1215.510498 1419.651489,1212.240356 1419.661255,1209.392456 
	C1419.666992,1207.688721 1419.665161,1205.345093 1418.640503,1204.389282 
	C1414.439819,1200.470337 1410.069946,1196.779419 1403.623413,1196.937988 
	C1394.385498,1197.165405 1385.135132,1197.083130 1375.893921,1196.920044 
	C1367.023804,1196.763550 1358.158203,1196.084473 1349.291260,1196.096558 
	C1340.090576,1196.109253 1330.889404,1196.971069 1321.690918,1196.929688 
	C1308.296509,1196.869507 1294.899658,1196.455444 1281.512695,1195.954346 
	C1273.480835,1195.653687 1267.045288,1199.860962 1261.443115,1204.248413 
	C1255.807129,1208.662476 1259.903931,1216.030273 1259.619629,1222.058105 
	C1259.307373,1228.679199 1259.967529,1235.342041 1259.847656,1241.980225 
	C1259.823364,1243.329346 1258.211914,1244.650024 1257.332153,1245.983887 
	C1256.854736,1245.850464 1256.377319,1245.717163 1255.899902,1245.583740 
	C1255.599854,1243.531372 1255.179565,1241.488159 1255.023071,1239.424805 
	C1254.590698,1233.727295 1254.205933,1228.024658 1253.932739,1222.317627 
	C1253.818115,1219.925171 1253.474487,1217.325317 1254.218994,1215.157715 
	C1255.567871,1211.229370 1254.409180,1208.515381 1251.686646,1206.019775 
	C1245.386108,1209.106812 1244.494995,1208.819580 1238.639160,1201.839233 
M681.493225,1020.947144 
	C707.036926,1020.827087 726.975281,1000.754272 726.925110,975.208801 
	C726.876953,950.687805 706.284363,930.164124 681.655334,930.090515 
	C656.769104,930.016052 636.717163,949.838684 635.841736,974.007385 
	C634.890503,1000.268372 657.127869,1021.319885 681.493225,1020.947144 
M697.202087,1317.878784 
	C704.821411,1315.121094 710.992126,1310.305176 716.346985,1304.350708 
	C726.610596,1292.937988 729.155945,1279.501709 725.878235,1264.950195 
	C721.205566,1244.205200 706.356873,1231.965454 687.681580,1229.321167 
	C668.991211,1226.674805 653.765808,1234.182251 642.927551,1250.074707 
	C637.484131,1258.056519 635.033630,1266.963501 635.266296,1276.308472 
	C635.491516,1285.356201 638.467834,1294.010620 644.228577,1301.146362 
	C651.173218,1309.748657 659.169434,1317.264404 670.551147,1319.640137 
	C679.285095,1321.463379 687.930664,1320.474976 697.202087,1317.878784 
M1146.677979,1164.817749 
	C1153.453369,1172.232300 1160.228760,1179.646851 1167.301514,1187.386841 
	C1182.216187,1170.795288 1196.748413,1154.629150 1211.280640,1138.463013 
	C1210.988159,1137.978394 1210.695557,1137.493896 1210.403076,1137.009277 
	C1181.507812,1137.009277 1152.612427,1137.009277 1122.280884,1137.009277 
	C1130.924805,1146.932617 1138.526001,1155.658691 1146.677979,1164.817749 
M1173.924805,1121.948608 
	C1175.214966,1121.604614 1176.505249,1121.260620 1178.662720,1120.685303 
	C1164.033936,1104.219116 1150.115112,1088.552124 1135.814453,1072.455322 
	C1121.093872,1088.904785 1106.873047,1104.795776 1092.652222,1120.686768 
	C1093.012573,1121.108765 1093.372925,1121.530640 1093.733276,1121.952515 
	C1120.168335,1121.952515 1146.603271,1121.952515 1173.924805,1121.948608 
z"/>
<path fill="#5DCBDC" opacity="1.000000" stroke="none" 
	d="
M977.000000,761.918457 
	C884.020081,761.924194 791.540161,761.936218 699.060242,761.925842 
	C688.923584,761.924744 680.889771,758.033630 676.354858,748.606750 
	C671.982605,739.518066 673.068054,730.758362 679.190002,722.819641 
	C684.142761,716.397156 691.222351,714.121948 699.011536,714.112183 
	C751.833252,714.045898 804.655212,714.063416 857.477051,714.064636 
	C946.291077,714.066711 1035.105103,714.060059 1123.919189,714.099548 
	C1139.219238,714.106323 1149.129395,724.034607 1149.032104,738.996216 
	C1148.949951,751.616516 1138.241699,761.892639 1124.968628,761.902100 
	C1075.812378,761.937378 1026.656250,761.917358 977.000000,761.918457 
z"/>
<path fill="#5CC6D9" opacity="1.000000" stroke="none" 
	d="
M1072.963013,992.947693 
	C1076.299194,989.775635 1079.677612,986.646423 1082.960571,983.420227 
	C1086.590698,979.852722 1090.133667,976.196411 1094.118652,972.109619 
	C1098.089478,968.153870 1101.577271,964.581848 1105.238525,961.197327 
	C1114.851440,952.310791 1126.301147,948.509277 1139.189453,950.397278 
	C1156.681274,952.959717 1168.810669,962.899902 1174.480591,979.568542 
	C1180.307617,996.699280 1176.012817,1011.976196 1163.555908,1024.961914 
	C1156.770142,1032.035767 1149.854248,1038.984863 1142.996948,1045.990234 
	C1136.413818,1052.560547 1129.811035,1059.111328 1123.251221,1065.704834 
	C1099.775635,1089.302002 1076.319946,1112.918945 1052.845581,1136.517212 
	C1038.274292,1151.165405 1023.639465,1165.750488 1009.120789,1180.450562 
	C1002.690552,1186.961182 996.477417,1193.686279 989.762451,1200.808594 
	C985.932434,1204.667236 982.427246,1207.955688 979.095825,1211.411621 
	C972.893250,1217.846069 965.913696,1222.980835 956.792969,1225.154419 
	C955.991272,1225.375366 955.490112,1225.655151 954.663391,1225.959961 
	C953.905884,1226.038696 953.473877,1226.092651 952.761841,1226.107910 
	C952.304565,1226.133301 952.127319,1226.197266 951.493774,1226.244141 
	C947.369812,1226.244385 943.702148,1226.261963 939.703003,1226.166748 
	C938.908203,1226.069580 938.444763,1226.085205 937.607544,1226.020996 
	C933.852600,1224.937134 930.471313,1223.932983 926.973999,1222.711182 
	C926.602661,1222.235352 926.298584,1222.149170 925.633423,1222.155151 
	C924.908569,1221.955322 924.496094,1221.835327 924.083618,1221.715210 
	C916.959961,1215.304199 909.790894,1208.942749 902.729065,1202.464355 
	C898.199768,1198.309204 893.760742,1194.049805 889.399231,1189.718384 
	C876.163635,1176.574097 862.864136,1163.490601 849.819824,1150.158203 
	C837.530212,1137.597168 834.161438,1118.416748 841.116089,1102.963379 
	C848.732361,1086.039795 864.481140,1075.552368 881.966980,1076.156738 
	C892.937378,1076.535767 902.678833,1079.982788 910.639099,1088.118164 
	C921.786560,1099.510620 933.288147,1110.556519 943.498901,1120.627075 
	C967.671509,1097.257324 991.755676,1073.973022 1016.261047,1050.222534 
	C1028.458618,1038.111450 1040.303223,1026.534424 1051.986084,1014.796509 
	C1059.107300,1007.641785 1065.979126,1000.239014 1072.963013,992.947693 
M1036.979858,1121.479736 
	C1044.254028,1113.928833 1051.420898,1106.271240 1058.821167,1098.846069 
	C1087.878662,1069.691406 1116.956787,1040.557007 1146.158203,1011.546936 
	C1151.857300,1005.885254 1154.701416,999.541382 1154.128906,991.458618 
	C1153.586548,983.802002 1150.307373,977.910461 1143.389771,974.750977 
	C1135.910156,971.334839 1128.071899,970.996033 1121.272705,976.348389 
	C1116.740356,979.916321 1112.908081,984.381531 1108.812866,988.495239 
	C1083.663940,1013.758240 1058.499634,1039.005981 1033.398193,1064.316162 
	C1007.717163,1090.210938 982.128967,1116.197876 956.444153,1142.088867 
	C947.437744,1151.167480 942.830872,1151.143921 933.851074,1142.217651 
	C921.681335,1130.120850 909.675354,1117.856812 897.378967,1105.890747 
	C887.972900,1096.737427 874.307007,1096.735718 866.000244,1105.485229 
	C858.121582,1113.783813 858.800537,1127.845825 867.140259,1136.123413 
	C886.532776,1155.371460 905.861450,1174.685669 925.055176,1194.131714 
	C936.785339,1206.016113 948.702393,1207.333252 961.773315,1197.031982 
	C966.685364,1193.160767 970.621582,1188.062134 975.070984,1183.591309 
	C995.524963,1163.038452 1016.003235,1142.509888 1036.979858,1121.479736 
z"/>
<path fill="#FBFEFE" opacity="1.000000" stroke="none" 
	d="
M1412.707886,1040.412354 
	C1409.180664,1047.072754 1403.975830,1050.031250 1396.754028,1050.015625 
	C1357.784912,1049.931519 1318.814941,1049.880859 1279.846191,1050.023315 
	C1269.721680,1050.060303 1262.117432,1042.679199 1262.086792,1032.760376 
	C1261.971069,995.290161 1261.984619,957.819214 1262.108887,920.348999 
	C1262.133179,913.013245 1264.562378,906.548828 1271.652344,902.991638 
	C1273.647461,901.990723 1275.980591,901.119202 1278.161255,901.113098 
	C1317.963013,901.001892 1357.765259,900.973206 1397.567139,901.079651 
	C1405.971558,901.102173 1414.717896,908.978760 1414.106201,917.859192 
	C1413.638184,924.654785 1413.958008,931.509277 1414.030029,938.336548 
	C1414.314331,965.278015 1414.795776,992.218689 1414.842163,1019.160278 
	C1414.854126,1026.124756 1413.548462,1033.091553 1412.707886,1040.412354 
M1382.046631,965.978455 
	C1387.722290,963.260010 1389.974976,959.260986 1388.966797,953.693726 
	C1388.194824,949.431702 1383.578491,945.078003 1379.201538,945.066040 
	C1352.388306,944.992798 1325.573975,944.944580 1298.761963,945.151367 
	C1294.232910,945.186279 1289.848145,946.717285 1287.937134,951.697815 
	C1284.689575,960.162842 1290.128662,966.911987 1300.391846,966.932434 
	C1324.207397,966.979980 1348.023438,966.966553 1371.838867,966.887573 
	C1374.969116,966.877197 1378.097534,966.337769 1382.046631,965.978455 
M1350.300171,1004.098511 
	C1354.615112,1000.731018 1356.076416,996.574341 1353.987061,991.323547 
	C1352.010010,986.354980 1348.435425,984.048767 1342.197632,984.033325 
	C1327.704346,983.997498 1313.210449,983.926819 1298.717896,984.026367 
	C1291.913940,984.073059 1286.940063,988.820251 1286.953613,994.831665 
	C1286.968506,1001.373413 1291.838989,1005.963623 1298.904907,1005.973389 
	C1313.398193,1005.993408 1327.892212,1006.022583 1342.384277,1005.885803 
	C1344.814453,1005.862854 1347.237061,1005.024536 1350.300171,1004.098511 
z"/>
<path fill="#FBFEFE" opacity="1.000000" stroke="none" 
	d="
M896.120728,1346.323364 
	C893.043762,1347.396240 890.240784,1348.892212 887.432190,1348.902832 
	C847.122498,1349.054932 806.812134,1349.018677 766.501892,1348.995850 
	C759.694641,1348.991943 753.926453,1344.540039 752.560425,1337.927124 
	C751.727417,1333.894897 751.131470,1329.731567 751.117615,1325.624878 
	C750.999878,1290.811890 750.997742,1255.998291 751.100525,1221.185303 
	C751.110657,1217.755371 751.747375,1214.246338 752.633850,1210.917969 
	C754.270142,1204.774292 759.489441,1201.012695 765.867004,1201.010010 
	C806.676941,1200.992798 847.486816,1200.992676 888.296753,1200.999146 
	C897.241516,1201.000488 902.972839,1206.615479 902.979065,1215.555664 
	C903.005981,1254.200195 902.923157,1292.844727 903.026489,1331.489014 
	C903.042664,1337.526611 899.895813,1341.792236 896.120728,1346.323364 
M788.802551,1266.101074 
	C814.619568,1266.092163 840.437622,1266.191406 866.252014,1265.926636 
	C869.223083,1265.896118 872.776611,1264.519409 874.991699,1262.559448 
	C878.299805,1259.632568 879.007690,1255.272461 876.880310,1251.111084 
	C874.859924,1247.159058 871.677734,1244.876953 866.920715,1244.890625 
	C840.770874,1244.965332 814.620667,1244.922974 788.470581,1244.939941 
	C781.291870,1244.944702 776.366333,1249.004150 776.053589,1255.091919 
	C775.754578,1260.911987 780.585144,1265.404419 788.802551,1266.101074 
M792.568298,1305.071411 
	C806.530151,1305.070923 820.498352,1305.291870 834.448547,1304.888062 
	C837.322876,1304.804810 840.758789,1303.005615 842.813538,1300.901489 
	C845.570740,1298.078125 846.095459,1293.990601 844.076050,1290.220825 
	C841.855896,1286.076538 838.245972,1284.007080 833.507751,1284.002441 
	C817.883789,1283.987183 802.259644,1283.921143 786.636047,1283.990479 
	C781.502502,1284.013184 778.332336,1287.118164 776.744629,1291.671875 
	C775.300171,1295.814453 776.331055,1300.141602 779.988892,1302.184326 
	C783.347839,1304.060181 787.688782,1304.177979 792.568298,1305.071411 
z"/>
<path fill="#FBFEFE" opacity="1.000000" stroke="none" 
	d="
M891.366333,902.403687 
	C899.110107,905.357971 902.996399,910.837524 902.999084,918.721680 
	C903.011841,956.711426 903.020935,994.701172 903.011047,1032.690918 
	C903.008301,1043.278320 896.591797,1049.936279 885.993591,1049.955200 
	C847.004272,1050.024658 808.014587,1050.019653 769.025330,1049.930298 
	C758.614685,1049.906494 751.063416,1042.347900 751.045471,1031.984619 
	C750.979858,993.994934 751.122925,956.004700 750.965515,918.015625 
	C750.934082,910.423279 760.450684,900.704651 768.428101,900.808105 
	C807.411133,901.313416 846.404175,901.024414 885.393616,901.088562 
	C887.282288,901.091675 889.169800,901.777527 891.366333,902.403687 
M864.202759,966.917480 
	C866.002747,966.643494 867.809448,966.407166 869.601501,966.088623 
	C875.464172,965.046387 878.453125,960.981812 877.997070,954.720825 
	C877.583191,949.038513 873.606873,945.057007 868.018250,945.047852 
	C841.024658,945.003540 814.030823,945.016357 787.037109,945.041504 
	C782.634460,945.045593 777.836060,948.376648 777.067993,951.792358 
	C775.580017,958.409607 777.211182,962.862305 782.605774,965.138428 
	C785.275391,966.264648 788.372253,966.849854 791.280151,966.865173 
	C815.273865,966.991760 839.268616,966.927185 864.202759,966.917480 
M818.499451,983.973328 
	C808.343201,983.988892 798.186340,983.947266 788.030823,984.040649 
	C781.623352,984.099548 776.092712,989.267761 776.053528,995.014282 
	C776.015686,1000.565430 781.784180,1005.890503 788.087952,1005.913330 
	C803.405396,1005.968872 818.723328,1005.976501 834.040649,1005.908203 
	C840.333069,1005.880188 845.004700,1001.360596 845.030640,995.561340 
	C845.059570,989.092468 840.372375,984.131348 833.983826,984.009827 
	C829.157043,983.917969 824.327393,983.979309 818.499451,983.973328 
z"/>
<path fill="#FBFEFE" opacity="1.000000" stroke="none" 
	d="
M927.090027,1222.928833 
	C930.471313,1223.932983 933.852600,1224.937134 937.752808,1226.231567 
	C938.859375,1226.441040 939.446899,1226.360229 940.034424,1226.279541 
	C943.702148,1226.261963 947.369812,1226.244385 951.613159,1226.379395 
	C952.473206,1226.403442 952.757568,1226.274902 953.041931,1226.146484 
	C953.473877,1226.092651 953.905884,1226.038696 954.809448,1226.204102 
	C955.885254,1226.020142 956.489380,1225.616699 957.093506,1225.213379 
	C965.913696,1222.980835 972.893250,1217.846069 979.095825,1211.411621 
	C982.427246,1207.955688 985.932434,1204.667236 989.628296,1201.116455 
	C1012.895935,1200.954102 1035.894531,1200.965820 1058.893188,1201.010132 
	C1066.618774,1201.025024 1072.989502,1207.410767 1072.991699,1215.136475 
	C1073.003052,1254.469604 1072.795288,1293.804443 1073.160767,1333.134155 
	C1073.233521,1340.950317 1065.588989,1349.178101 1057.200073,1349.123169 
	C1017.368713,1348.862549 977.534668,1349.017822 937.701599,1349.011475 
	C929.265259,1349.010010 922.104431,1342.422363 922.068481,1333.844238 
	C921.918091,1298.011841 921.992004,1262.178345 922.082642,1226.345459 
	C922.085938,1225.043701 923.124451,1223.744385 923.882080,1222.079590 
	C924.496094,1221.835327 924.908569,1221.955322 925.772583,1222.343994 
	C926.466248,1222.844971 926.754883,1222.950439 927.090027,1222.928833 
M1011.500000,1244.935181 
	C993.872375,1244.936890 976.244568,1244.898804 958.617126,1244.960327 
	C951.784912,1244.984253 946.993042,1249.603271 946.991943,1255.896240 
	C946.991089,1261.373657 952.062195,1266.020874 958.333496,1266.032349 
	C984.608582,1266.080933 1010.883911,1266.094238 1037.159058,1266.041504 
	C1044.151611,1266.027466 1047.947144,1262.335449 1048.044678,1255.845093 
	C1048.136353,1249.753540 1043.368042,1244.979248 1036.945801,1244.925659 
	C1028.797729,1244.857788 1020.648621,1244.925781 1011.500000,1244.935181 
M988.499451,1283.970581 
	C978.362610,1283.965454 968.225464,1283.908813 958.089050,1283.973022 
	C951.296265,1284.015991 946.927734,1288.241699 946.907410,1294.573242 
	C946.887024,1300.933472 951.150269,1305.023438 958.139404,1305.051392 
	C973.759827,1305.113892 989.380981,1305.101318 1005.001038,1305.000610 
	C1006.734253,1304.989502 1008.768066,1304.649902 1010.135376,1303.702026 
	C1014.205566,1300.881104 1016.017456,1295.449097 1014.670837,1291.427124 
	C1013.203613,1287.044556 1008.700806,1284.030640 1003.457886,1283.988403 
	C998.805237,1283.951050 994.151978,1283.974121 988.499451,1283.970581 
z"/>
<path fill="#FBFEFE" opacity="1.000000" stroke="none" 
	d="
M1072.950928,992.483643 
	C1065.979126,1000.239014 1059.107300,1007.641785 1051.986084,1014.796509 
	C1040.303223,1026.534424 1028.458618,1038.111450 1016.390930,1049.912109 
	C990.610107,1050.036255 965.120605,1050.009644 939.631104,1049.970581 
	C928.196899,1049.953125 922.027893,1043.806641 922.020447,1032.355469 
	C921.995605,994.369080 922.190674,956.380859 921.838013,918.397644 
	C921.760742,910.076355 929.337158,900.788269 939.432129,900.884399 
	C977.748230,901.249207 1016.069946,901.024841 1054.389526,901.039490 
	C1065.696777,901.043823 1072.975708,908.313660 1072.972778,919.545471 
	C1072.966431,943.703552 1072.950806,967.861572 1072.950928,992.483643 
M969.502991,945.049805 
	C965.675842,945.049988 961.848572,945.029602 958.021545,945.054749 
	C950.650574,945.103149 946.919312,948.976013 946.977417,956.481750 
	C947.022827,962.347778 951.216309,966.041748 957.881287,966.061279 
	C966.034058,966.085144 974.187744,966.022888 982.339478,966.120789 
	C1000.779236,966.342163 1019.217957,966.793152 1037.657471,966.818542 
	C1043.816284,966.827026 1049.245117,961.425781 1048.687744,956.204041 
	C1047.879028,948.629761 1043.968018,944.821228 1036.892944,944.912903 
	C1014.765747,945.199707 992.632751,945.038147 969.502991,945.049805 
M962.573242,1005.949707 
	C976.051514,1005.946777 989.529724,1005.958923 1003.007996,1005.934753 
	C1010.244141,1005.921814 1014.667297,1002.497437 1014.960876,996.762939 
	C1015.336304,989.431641 1011.436768,984.335266 1003.948792,984.151794 
	C988.317322,983.768921 972.667603,983.919250 957.029480,984.140381 
	C952.158813,984.209229 947.701294,988.664001 947.016113,993.097351 
	C946.127808,998.845276 947.830994,1003.032959 952.833496,1005.022583 
	C955.463379,1006.068542 958.661804,1005.684998 962.573242,1005.949707 
z"/>
<path fill="#FBFEFE" opacity="1.000000" stroke="none" 
	d="
M1143.016113,1046.411133 
	C1149.854248,1038.984863 1156.770142,1032.035767 1163.555908,1024.961914 
	C1176.012817,1011.976196 1180.307617,996.699280 1174.480591,979.568542 
	C1168.810669,962.899902 1156.681274,952.959717 1139.189453,950.397278 
	C1126.301147,948.509277 1114.851440,952.310791 1105.238525,961.197327 
	C1101.577271,964.581848 1098.089478,968.153870 1094.224609,971.788879 
	C1093.282959,970.362488 1092.091064,968.791443 1092.080078,967.212219 
	C1091.962036,950.220764 1091.988770,933.227722 1092.068115,916.235596 
	C1092.099121,909.571228 1100.447876,901.096863 1107.328735,901.080139 
	C1146.477783,900.984741 1185.628662,900.856140 1224.775757,901.147156 
	C1235.141968,901.224182 1244.109253,907.661499 1244.028320,921.133606 
	C1243.809082,957.616150 1243.819214,994.101746 1244.053101,1030.584106 
	C1244.122437,1041.405640 1237.408447,1050.263916 1224.767212,1050.076172 
	C1199.117676,1049.694946 1173.458252,1049.977661 1147.802979,1049.954102 
	C1145.611206,1049.952026 1142.753906,1050.719116 1143.016113,1046.411133 
z"/>
<path fill="#B6F3F8" opacity="1.000000" stroke="none" 
	d="
M1238.952881,1202.028564 
	C1244.494995,1208.819580 1245.386108,1209.106812 1251.686646,1206.019775 
	C1254.409180,1208.515381 1255.567871,1211.229370 1254.218994,1215.157715 
	C1253.474487,1217.325317 1253.818115,1219.925171 1253.932739,1222.317627 
	C1254.205933,1228.024658 1254.590698,1233.727295 1255.023071,1239.424805 
	C1255.179565,1241.488159 1255.599854,1243.531372 1255.899902,1245.583740 
	C1256.377319,1245.717163 1256.854736,1245.850464 1257.332153,1245.983887 
	C1258.211914,1244.650024 1259.823364,1243.329346 1259.847656,1241.980225 
	C1259.967529,1235.342041 1259.307373,1228.679199 1259.619629,1222.058105 
	C1259.903931,1216.030273 1255.807129,1208.662476 1261.443115,1204.248413 
	C1267.045288,1199.860962 1273.480835,1195.653687 1281.512695,1195.954346 
	C1294.899658,1196.455444 1308.296509,1196.869507 1321.690918,1196.929688 
	C1330.889404,1196.971069 1340.090576,1196.109253 1349.291260,1196.096558 
	C1358.158203,1196.084473 1367.023804,1196.763550 1375.893921,1196.920044 
	C1385.135132,1197.083130 1394.385498,1197.165405 1403.623413,1196.937988 
	C1410.069946,1196.779419 1414.439819,1200.470337 1418.640503,1204.389282 
	C1419.665161,1205.345093 1419.666992,1207.688721 1419.661255,1209.392456 
	C1419.651489,1212.240356 1418.240845,1215.510498 1419.217896,1217.852905 
	C1421.960083,1224.427368 1419.587646,1230.866699 1419.594360,1237.303467 
	C1419.604004,1246.553467 1418.616455,1255.806885 1417.989990,1265.054565 
	C1417.386108,1273.968994 1416.240356,1282.874634 1416.176392,1291.790161 
	C1416.108643,1301.216431 1416.956177,1310.655151 1417.572632,1320.077393 
	C1417.798584,1323.530151 1418.312256,1326.993164 1419.039307,1330.377563 
	C1420.373413,1336.587524 1416.277466,1341.095459 1414.307861,1346.242310 
	C1411.490479,1353.604736 1411.377075,1352.589844 1403.332642,1352.449829 
	C1387.845093,1352.179810 1372.336792,1353.126587 1356.836548,1353.552490 
	C1349.434814,1353.755737 1342.030762,1353.880371 1334.630493,1354.124512 
	C1331.832397,1354.216797 1329.037109,1354.494141 1326.249390,1354.775513 
	C1315.795532,1355.830322 1305.362183,1357.202637 1294.883789,1357.835815 
	C1291.548462,1358.037598 1288.085571,1356.352295 1284.700928,1355.455200 
	C1280.556396,1354.356689 1276.449341,1353.113892 1272.296265,1352.049927 
	C1264.584595,1350.074219 1260.634888,1345.551270 1259.995605,1337.802612 
	C1259.981934,1337.636841 1260.033203,1337.450073 1259.974121,1337.305908 
	C1258.494629,1333.692627 1259.174683,1326.991333 1254.421509,1327.738281 
	C1251.196411,1328.245117 1247.531494,1334.111206 1246.446167,1338.211426 
	C1244.714478,1344.753418 1237.473267,1351.028076 1230.836792,1351.312378 
	C1220.830322,1351.741089 1210.884399,1353.470337 1200.895386,1354.473022 
	C1196.528931,1354.911255 1192.120728,1354.958740 1187.729004,1355.113525 
	C1181.330322,1355.338989 1174.900024,1355.176758 1168.535278,1355.755005 
	C1153.718140,1357.101440 1138.807007,1357.088379 1124.317871,1354.422852 
	C1118.529053,1353.357788 1112.773315,1352.671021 1106.980225,1351.818848 
	C1102.122681,1351.104248 1097.096436,1349.963745 1094.470215,1344.391846 
	C1092.837891,1340.928833 1089.775879,1338.135986 1087.322388,1335.068970 
	C1087.027954,1334.700928 1086.506592,1334.233643 1086.121460,1334.260376 
	C1077.604980,1334.850830 1079.669312,1327.600464 1079.280396,1323.678955 
	C1078.201050,1312.798462 1078.342896,1301.796753 1077.999756,1290.843018 
	C1077.921631,1288.345947 1078.110596,1286.287476 1081.441162,1285.863403 
	C1082.686646,1285.704834 1084.442383,1284.172852 1084.749756,1282.959106 
	C1086.078491,1277.712646 1087.610596,1272.385254 1087.882568,1267.027100 
	C1088.854004,1247.881958 1089.124023,1228.701172 1090.113525,1209.557129 
	C1090.549805,1201.116333 1094.522461,1196.616577 1103.205933,1196.816284 
	C1117.775879,1197.151733 1132.371216,1196.193726 1146.958374,1196.064453 
	C1153.350586,1196.007690 1159.746460,1196.725708 1166.145874,1196.938232 
	C1168.446533,1197.014648 1170.796509,1196.836548 1173.065063,1196.438721 
	C1183.976929,1194.524902 1194.779297,1194.788452 1205.743042,1196.574463 
	C1212.332275,1197.647949 1219.200195,1197.262207 1225.933716,1197.115356 
	C1230.919922,1197.006714 1234.915039,1198.894409 1238.952881,1202.028564 
M1262.032471,1283.500000 
	C1262.039062,1299.498169 1262.012573,1315.496582 1262.063721,1331.494629 
	C1262.099243,1342.582764 1268.707520,1349.134155 1279.773071,1349.134033 
	C1318.768311,1349.133301 1357.763550,1349.120239 1396.758789,1349.105957 
	C1407.134033,1349.102051 1413.963867,1342.447266 1413.980957,1332.003662 
	C1414.043335,1293.841675 1414.042236,1255.679810 1413.994629,1217.517822 
	C1413.982056,1207.392090 1406.748779,1200.117798 1396.690796,1200.104858 
	C1357.862183,1200.055054 1319.033569,1200.039551 1280.205078,1200.108276 
	C1268.418579,1200.129150 1262.077148,1206.692871 1262.063843,1218.507812 
	C1262.039917,1239.838501 1262.041016,1261.169312 1262.032471,1283.500000 
M1238.432007,1344.961670 
	C1239.979248,1341.897461 1242.288818,1338.976196 1242.897095,1335.735596 
	C1243.838867,1330.719360 1243.822632,1325.486450 1243.854736,1320.343140 
	C1243.963745,1302.848022 1244.026611,1285.351074 1243.896851,1267.856445 
	C1243.767334,1250.383057 1243.433472,1232.910522 1243.091553,1215.439697 
	C1242.941528,1207.775513 1237.517212,1201.499512 1230.113159,1200.932373 
	C1222.167480,1200.323608 1214.175049,1200.126709 1206.202148,1200.105957 
	C1174.376831,1200.023071 1142.551270,1200.062988 1110.725708,1200.091797 
	C1099.521851,1200.101929 1092.058228,1206.368774 1092.048462,1215.872803 
	C1092.009033,1254.529907 1091.994019,1293.187012 1092.062134,1331.843994 
	C1092.080322,1342.114746 1099.144287,1349.094971 1109.278931,1349.100098 
	C1148.102783,1349.119873 1186.927246,1349.205933 1225.749268,1348.934448 
	C1229.796631,1348.906250 1233.828491,1346.669800 1238.432007,1344.961670 
z"/>
<path fill="#5BC9DC" opacity="1.000000" stroke="none" 
	d="
M681.023193,1020.946167 
	C657.127869,1021.319885 634.890503,1000.268372 635.841736,974.007385 
	C636.717163,949.838684 656.769104,930.016052 681.655334,930.090515 
	C706.284363,930.164124 726.876953,950.687805 726.925110,975.208801 
	C726.975281,1000.754272 707.036926,1020.827087 681.023193,1020.946167 
M665.863647,982.863892 
	C677.498291,982.590393 689.132751,982.304993 700.767761,982.049561 
	C705.031372,981.955994 706.656311,979.143188 706.834473,975.563660 
	C706.993713,972.365906 705.616211,969.189941 701.967834,969.126770 
	C688.316223,968.890137 674.653259,968.806213 661.005432,969.129333 
	C656.100525,969.245483 653.476807,974.852478 656.617554,978.626038 
	C658.450134,980.827942 662.119690,981.500854 665.863647,982.863892 
z"/>
<path fill="#F7FDFD" opacity="1.000000" stroke="none" 
	d="
M696.837524,1318.042969 
	C687.930664,1320.474976 679.285095,1321.463379 670.551147,1319.640137 
	C659.169434,1317.264404 651.173218,1309.748657 644.228577,1301.146362 
	C638.467834,1294.010620 635.491516,1285.356201 635.266296,1276.308472 
	C635.033630,1266.963501 637.484131,1258.056519 642.927551,1250.074707 
	C653.765808,1234.182251 668.991211,1226.674805 687.681580,1229.321167 
	C706.356873,1231.965454 721.205566,1244.205200 725.878235,1264.950195 
	C729.155945,1279.501709 726.610596,1292.937988 716.346985,1304.350708 
	C710.992126,1310.305176 704.821411,1315.121094 696.837524,1318.042969 
M662.105103,1282.013672 
	C666.052185,1282.267212 671.364807,1281.091064 673.555542,1283.183472 
	C675.672180,1285.205200 674.571533,1290.595703 674.882263,1294.506470 
	C674.895447,1294.671997 674.891235,1294.839111 674.893616,1295.005493 
	C674.951782,1299.147583 677.304504,1301.079102 681.194763,1301.130249 
	C685.287109,1301.184204 687.766968,1299.177612 688.039185,1294.892578 
	C688.289795,1290.947754 687.079834,1285.381958 689.181030,1283.484619 
	C691.596497,1281.303711 696.941406,1282.341309 701.017822,1282.031982 
	C705.722229,1281.675049 708.263794,1278.876587 708.058472,1274.199097 
	C707.853333,1269.525513 705.333557,1267.932251 698.266724,1267.872559 
	C686.540344,1267.773560 688.079590,1268.989868 687.873169,1257.911377 
	C687.755859,1251.614868 685.466370,1248.430176 680.893433,1248.303833 
	C676.862976,1248.192505 675.037415,1251.168091 674.939941,1258.007324 
	C674.799866,1267.832886 674.799805,1267.833008 665.086670,1267.843506 
	C664.753784,1267.843750 664.420288,1267.854004 664.088196,1267.836792 
	C659.697998,1267.609619 655.954041,1268.595581 655.098389,1273.623901 
	C654.294495,1278.348755 657.247070,1280.593994 662.105103,1282.013672 
z"/>
<path fill="#5EC9DB" opacity="1.000000" stroke="none" 
	d="
M1146.402588,1164.601318 
	C1138.526001,1155.658691 1130.924805,1146.932617 1122.280884,1137.009277 
	C1152.612427,1137.009277 1181.507812,1137.009277 1210.403076,1137.009277 
	C1210.695557,1137.493896 1210.988159,1137.978394 1211.280640,1138.463013 
	C1196.748413,1154.629150 1182.216187,1170.795288 1167.301514,1187.386841 
	C1160.228760,1179.646851 1153.453369,1172.232300 1146.402588,1164.601318 
z"/>
<path fill="#5EC9DB" opacity="1.000000" stroke="none" 
	d="
M1173.481567,1121.950562 
	C1146.603271,1121.952515 1120.168335,1121.952515 1093.733276,1121.952515 
	C1093.372925,1121.530640 1093.012573,1121.108765 1092.652222,1120.686768 
	C1106.873047,1104.795776 1121.093872,1088.904785 1135.814453,1072.455322 
	C1150.115112,1088.552124 1164.033936,1104.219116 1178.662720,1120.685303 
	C1176.505249,1121.260620 1175.214966,1121.604614 1173.481567,1121.950562 
z"/>
<path fill="#65C3D0" opacity="1.000000" stroke="none" 
	d="
M1058.056885,643.035278 
	C1054.338623,649.794128 1048.230957,652.030212 1040.964722,652.031250 
	C986.978699,652.039062 932.992737,652.044312 879.006714,652.041992 
	C818.522400,652.039307 758.038086,652.014221 697.553772,652.034363 
	C688.163208,652.037476 681.301941,647.860291 676.900330,639.715088 
	C672.389404,631.367920 672.835815,623.006409 677.963562,615.118713 
	C682.691284,607.846375 689.581116,604.851685 698.339355,604.860229 
	C805.311462,604.964539 912.283813,604.923828 1019.256042,604.923462 
	C1026.920654,604.923462 1034.601807,604.632690 1042.245605,605.037231 
	C1051.491333,605.526550 1058.449341,610.148010 1061.948730,618.796448 
	C1065.372559,627.258301 1065.481689,635.635803 1058.362671,642.557861 
	C1058.910645,639.098145 1059.866333,636.001648 1060.697144,632.872070 
	C1061.190186,631.014648 1062.299683,628.813660 1061.744263,627.264771 
	C1056.866821,613.661621 1052.278320,607.122498 1035.294067,607.091614 
	C932.171631,606.904114 829.048767,606.999146 725.926025,607.000183 
	C715.763672,607.000305 705.601135,607.047424 695.439148,606.985535 
	C690.378845,606.954712 686.364807,608.581848 683.994690,613.338623 
	C683.647461,614.035461 683.090637,614.685852 682.489746,615.189453 
	C675.772766,620.818909 674.710571,626.644592 678.962830,634.506592 
	C679.421753,635.355164 679.963318,636.343445 679.927612,637.245544 
	C679.678406,643.552795 685.241394,645.851746 689.021606,647.436523 
	C694.297729,649.648438 700.656006,649.768555 706.565979,649.863708 
	C715.241882,650.003357 723.929443,649.135437 732.614746,649.071960 
	C738.233032,649.030823 743.858948,649.970642 749.476562,649.920715 
	C759.789429,649.829041 770.097168,649.161133 780.410034,649.070190 
	C786.027893,649.020630 791.654297,649.969055 797.272461,649.923645 
	C806.564575,649.848694 815.852722,649.088745 825.143127,649.077209 
	C833.596497,649.066772 842.048889,649.854187 850.504883,649.930359 
	C855.623352,649.976379 860.751343,649.020081 865.869141,649.073730 
	C876.509094,649.185303 887.145569,649.945679 897.782715,649.930176 
	C911.175232,649.910645 924.566406,649.177551 937.959229,649.139832 
	C948.082031,649.111328 958.207275,649.960388 968.330017,649.929626 
	C980.449951,649.892700 992.568237,649.080750 1004.687439,649.076233 
	C1016.387756,649.071899 1028.087646,649.694336 1039.789062,649.987488 
	C1044.750610,650.111755 1049.068359,648.592529 1052.838013,645.169678 
	C1054.145630,643.982361 1056.293091,643.720032 1058.056885,643.035278 
z"/>
<path fill="#BCF1F6" opacity="1.000000" stroke="none" 
	d="
M1036.726318,1121.726196 
	C1016.003235,1142.509888 995.524963,1163.038452 975.070984,1183.591309 
	C970.621582,1188.062134 966.685364,1193.160767 961.773315,1197.031982 
	C948.702393,1207.333252 936.785339,1206.016113 925.055176,1194.131714 
	C905.861450,1174.685669 886.532776,1155.371460 867.140259,1136.123413 
	C858.800537,1127.845825 858.121582,1113.783813 866.000244,1105.485229 
	C874.307007,1096.735718 887.972900,1096.737427 897.378967,1105.890747 
	C909.675354,1117.856812 921.681335,1130.120850 933.851074,1142.217651 
	C942.830872,1151.143921 947.437744,1151.167480 956.444153,1142.088867 
	C982.128967,1116.197876 1007.717163,1090.210938 1033.398193,1064.316162 
	C1058.499634,1039.005981 1083.663940,1013.758240 1108.812866,988.495239 
	C1112.908081,984.381531 1116.740356,979.916321 1121.272705,976.348389 
	C1128.071899,970.996033 1135.910156,971.334839 1143.389771,974.750977 
	C1150.307373,977.910461 1153.586548,983.802002 1154.128906,991.458618 
	C1154.701416,999.541382 1151.857300,1005.885254 1146.158203,1011.546936 
	C1116.956787,1040.557007 1087.878662,1069.691406 1058.821167,1098.846069 
	C1051.420898,1106.271240 1044.254028,1113.928833 1036.726318,1121.726196 
z"/>
<path fill="#BFF1F6" opacity="1.000000" stroke="none" 
	d="
M956.792969,1225.154419 
	C956.489380,1225.616699 955.885254,1226.020142 955.135010,1226.179199 
	C955.490112,1225.655151 955.991272,1225.375366 956.792969,1225.154419 
z"/>
<path fill="#BFF1F6" opacity="1.000000" stroke="none" 
	d="
M939.703003,1226.166748 
	C939.446899,1226.360229 938.859375,1226.441040 938.126587,1226.311279 
	C938.444763,1226.085205 938.908203,1226.069580 939.703003,1226.166748 
z"/>
<path fill="#BFF1F6" opacity="1.000000" stroke="none" 
	d="
M952.761841,1226.107910 
	C952.757568,1226.274902 952.473206,1226.403442 952.069458,1226.396729 
	C952.127319,1226.197266 952.304565,1226.133301 952.761841,1226.107910 
z"/>
<path fill="#BFF1F6" opacity="1.000000" stroke="none" 
	d="
M926.973999,1222.711182 
	C926.754883,1222.950439 926.466248,1222.844971 926.084900,1222.423706 
	C926.298584,1222.149170 926.602661,1222.235352 926.973999,1222.711182 
z"/>
<path fill="#A6E2EB" opacity="1.000000" stroke="none" 
	d="
M1381.636719,966.010925 
	C1378.097534,966.337769 1374.969116,966.877197 1371.838867,966.887573 
	C1348.023438,966.966553 1324.207397,966.979980 1300.391846,966.932434 
	C1290.128662,966.911987 1284.689575,960.162842 1287.937134,951.697815 
	C1289.848145,946.717285 1294.232910,945.186279 1298.761963,945.151367 
	C1325.573975,944.944580 1352.388306,944.992798 1379.201538,945.066040 
	C1383.578491,945.078003 1388.194824,949.431702 1388.966797,953.693726 
	C1389.974976,959.260986 1387.722290,963.260010 1381.636719,966.010925 
z"/>
<path fill="#A6E2EB" opacity="1.000000" stroke="none" 
	d="
M1349.981689,1004.330688 
	C1347.237061,1005.024536 1344.814453,1005.862854 1342.384277,1005.885803 
	C1327.892212,1006.022583 1313.398193,1005.993408 1298.904907,1005.973389 
	C1291.838989,1005.963623 1286.968506,1001.373413 1286.953613,994.831665 
	C1286.940063,988.820251 1291.913940,984.073059 1298.717896,984.026367 
	C1313.210449,983.926819 1327.704346,983.997498 1342.197632,984.033325 
	C1348.435425,984.048767 1352.010010,986.354980 1353.987061,991.323547 
	C1356.076416,996.574341 1354.615112,1000.731018 1349.981689,1004.330688 
z"/>
<path fill="#A6E2EB" opacity="1.000000" stroke="none" 
	d="
M788.346069,1266.100098 
	C780.585144,1265.404419 775.754578,1260.911987 776.053589,1255.091919 
	C776.366333,1249.004150 781.291870,1244.944702 788.470581,1244.939941 
	C814.620667,1244.922974 840.770874,1244.965332 866.920715,1244.890625 
	C871.677734,1244.876953 874.859924,1247.159058 876.880310,1251.111084 
	C879.007690,1255.272461 878.299805,1259.632568 874.991699,1262.559448 
	C872.776611,1264.519409 869.223083,1265.896118 866.252014,1265.926636 
	C840.437622,1266.191406 814.619568,1266.092163 788.346069,1266.100098 
z"/>
<path fill="#A6E2EB" opacity="1.000000" stroke="none" 
	d="
M792.082642,1305.070801 
	C787.688782,1304.177979 783.347839,1304.060181 779.988892,1302.184326 
	C776.331055,1300.141602 775.300171,1295.814453 776.744629,1291.671875 
	C778.332336,1287.118164 781.502502,1284.013184 786.636047,1283.990479 
	C802.259644,1283.921143 817.883789,1283.987183 833.507751,1284.002441 
	C838.245972,1284.007080 841.855896,1286.076538 844.076050,1290.220825 
	C846.095459,1293.990601 845.570740,1298.078125 842.813538,1300.901489 
	C840.758789,1303.005615 837.322876,1304.804810 834.448547,1304.888062 
	C820.498352,1305.291870 806.530151,1305.070923 792.082642,1305.070801 
z"/>
<path fill="#A6E2EB" opacity="1.000000" stroke="none" 
	d="
M863.732910,966.919006 
	C839.268616,966.927185 815.273865,966.991760 791.280151,966.865173 
	C788.372253,966.849854 785.275391,966.264648 782.605774,965.138428 
	C777.211182,962.862305 775.580017,958.409607 777.067993,951.792358 
	C777.836060,948.376648 782.634460,945.045593 787.037109,945.041504 
	C814.030823,945.016357 841.024658,945.003540 868.018250,945.047852 
	C873.606873,945.057007 877.583191,949.038513 877.997070,954.720825 
	C878.453125,960.981812 875.464172,965.046387 869.601501,966.088623 
	C867.809448,966.407166 866.002747,966.643494 863.732910,966.919006 
z"/>
<path fill="#A6E2EB" opacity="1.000000" stroke="none" 
	d="
M818.999268,983.972900 
	C824.327393,983.979309 829.157043,983.917969 833.983826,984.009827 
	C840.372375,984.131348 845.059570,989.092468 845.030640,995.561340 
	C845.004700,1001.360596 840.333069,1005.880188 834.040649,1005.908203 
	C818.723328,1005.976501 803.405396,1005.968872 788.087952,1005.913330 
	C781.784180,1005.890503 776.015686,1000.565430 776.053528,995.014282 
	C776.092712,989.267761 781.623352,984.099548 788.030823,984.040649 
	C798.186340,983.947266 808.343201,983.988892 818.999268,983.972900 
z"/>
<path fill="#A6E2EB" opacity="1.000000" stroke="none" 
	d="
M1012.000000,1244.935181 
	C1020.648621,1244.925781 1028.797729,1244.857788 1036.945801,1244.925659 
	C1043.368042,1244.979248 1048.136353,1249.753540 1048.044678,1255.845093 
	C1047.947144,1262.335449 1044.151611,1266.027466 1037.159058,1266.041504 
	C1010.883911,1266.094238 984.608582,1266.080933 958.333496,1266.032349 
	C952.062195,1266.020874 946.991089,1261.373657 946.991943,1255.896240 
	C946.993042,1249.603271 951.784912,1244.984253 958.617126,1244.960327 
	C976.244568,1244.898804 993.872375,1244.936890 1012.000000,1244.935181 
z"/>
<path fill="#A6E2EB" opacity="1.000000" stroke="none" 
	d="
M988.999268,1283.970459 
	C994.151978,1283.974121 998.805237,1283.951050 1003.457886,1283.988403 
	C1008.700806,1284.030640 1013.203613,1287.044556 1014.670837,1291.427124 
	C1016.017456,1295.449097 1014.205566,1300.881104 1010.135376,1303.702026 
	C1008.768066,1304.649902 1006.734253,1304.989502 1005.001038,1305.000610 
	C989.380981,1305.101318 973.759827,1305.113892 958.139404,1305.051392 
	C951.150269,1305.023438 946.887024,1300.933472 946.907410,1294.573242 
	C946.927734,1288.241699 951.296265,1284.015991 958.089050,1283.973022 
	C968.225464,1283.908813 978.362610,1283.965454 988.999268,1283.970459 
z"/>
<path fill="#A6E2EB" opacity="1.000000" stroke="none" 
	d="
M970.002441,945.050049 
	C992.632751,945.038147 1014.765747,945.199707 1036.892944,944.912903 
	C1043.968018,944.821228 1047.879028,948.629761 1048.687744,956.204041 
	C1049.245117,961.425781 1043.816284,966.827026 1037.657471,966.818542 
	C1019.217957,966.793152 1000.779236,966.342163 982.339478,966.120789 
	C974.187744,966.022888 966.034058,966.085144 957.881287,966.061279 
	C951.216309,966.041748 947.022827,962.347778 946.977417,956.481750 
	C946.919312,948.976013 950.650574,945.103149 958.021545,945.054749 
	C961.848572,945.029602 965.675842,945.049988 970.002441,945.050049 
z"/>
<path fill="#A6E2EB" opacity="1.000000" stroke="none" 
	d="
M962.088379,1005.948303 
	C958.661804,1005.684998 955.463379,1006.068542 952.833496,1005.022583 
	C947.830994,1003.032959 946.127808,998.845276 947.016113,993.097351 
	C947.701294,988.664001 952.158813,984.209229 957.029480,984.140381 
	C972.667603,983.919250 988.317322,983.768921 1003.948792,984.151794 
	C1011.436768,984.335266 1015.336304,989.431641 1014.960876,996.762939 
	C1014.667297,1002.497437 1010.244141,1005.921814 1003.007996,1005.934753 
	C989.529724,1005.958923 976.051514,1005.946777 962.088379,1005.948303 
z"/>
<path fill="#5BC9DC" opacity="1.000000" stroke="none" 
	d="
M1262.031982,1283.000000 
	C1262.041016,1261.169312 1262.039917,1239.838501 1262.063843,1218.507812 
	C1262.077148,1206.692871 1268.418579,1200.129150 1280.205078,1200.108276 
	C1319.033569,1200.039551 1357.862183,1200.055054 1396.690796,1200.104858 
	C1406.748779,1200.117798 1413.982056,1207.392090 1413.994629,1217.517822 
	C1414.042236,1255.679810 1414.043335,1293.841675 1413.980957,1332.003662 
	C1413.963867,1342.447266 1407.134033,1349.102051 1396.758789,1349.105957 
	C1357.763550,1349.120239 1318.768311,1349.133301 1279.773071,1349.134033 
	C1268.707520,1349.134155 1262.099243,1342.582764 1262.063721,1331.494629 
	C1262.012573,1315.496582 1262.039062,1299.498169 1262.031982,1283.000000 
M1362.022217,1245.483887 
	C1350.110962,1257.982666 1338.199829,1270.481567 1325.477783,1283.831177 
	C1321.241211,1279.300293 1317.639038,1274.651978 1313.213745,1271.001587 
	C1310.368896,1268.655151 1306.269287,1266.527344 1302.814697,1266.648926 
	C1300.211914,1266.740479 1296.671631,1270.088501 1295.470337,1272.829224 
	C1293.826050,1276.580566 1294.379517,1280.994141 1297.805420,1284.360229 
	C1304.936523,1291.367065 1311.944092,1298.500000 1319.095337,1305.486084 
	C1323.681030,1309.965820 1328.505127,1309.965576 1333.093018,1305.401733 
	C1337.807861,1300.711792 1342.290161,1295.788574 1346.892944,1290.985229 
	C1357.603271,1279.807617 1368.322388,1268.638428 1379.043213,1257.470947 
	C1382.605591,1253.760254 1383.039917,1249.446289 1380.883179,1245.047119 
	C1378.673706,1240.540283 1374.415283,1239.072021 1369.901733,1240.252197 
	C1367.216431,1240.954224 1364.972534,1243.345581 1362.022217,1245.483887 
z"/>
<path fill="#5BC9DC" opacity="1.000000" stroke="none" 
	d="
M1238.149780,1345.209839 
	C1233.828491,1346.669800 1229.796631,1348.906250 1225.749268,1348.934448 
	C1186.927246,1349.205933 1148.102783,1349.119873 1109.278931,1349.100098 
	C1099.144287,1349.094971 1092.080322,1342.114746 1092.062134,1331.843994 
	C1091.994019,1293.187012 1092.009033,1254.529907 1092.048462,1215.872803 
	C1092.058228,1206.368774 1099.521851,1200.101929 1110.725708,1200.091797 
	C1142.551270,1200.062988 1174.376831,1200.023071 1206.202148,1200.105957 
	C1214.175049,1200.126709 1222.167480,1200.323608 1230.113159,1200.932373 
	C1237.517212,1201.499512 1242.941528,1207.775513 1243.091553,1215.439697 
	C1243.433472,1232.910522 1243.767334,1250.383057 1243.896851,1267.856445 
	C1244.026611,1285.351074 1243.963745,1302.848022 1243.854736,1320.343140 
	C1243.822632,1325.486450 1243.838867,1330.719360 1242.897095,1335.735596 
	C1242.288818,1338.976196 1239.979248,1341.897461 1238.149780,1345.209839 
M1135.126953,1266.937134 
	C1130.229492,1266.210693 1126.234619,1268.063599 1124.509033,1272.497681 
	C1122.812988,1276.855835 1123.620850,1281.267334 1127.340454,1284.859497 
	C1133.812744,1291.110107 1140.028809,1297.626465 1146.509277,1303.868164 
	C1153.263550,1310.373657 1157.429199,1310.285400 1163.853394,1303.716675 
	C1178.524780,1288.715088 1193.174316,1273.691772 1207.796021,1258.641724 
	C1212.830200,1253.459961 1213.227173,1246.923584 1208.914185,1242.549805 
	C1205.062256,1238.643677 1198.232788,1239.193726 1193.409302,1244.152344 
	C1182.164185,1255.712646 1171.072021,1267.421387 1159.884277,1279.037720 
	C1158.433716,1280.543945 1156.785034,1281.859497 1154.174927,1284.213013 
	C1152.137451,1281.640015 1150.645996,1279.128906 1148.570801,1277.269531 
	C1144.534912,1273.653442 1140.171509,1270.402832 1135.126953,1266.937134 
z"/>
<path fill="#B6F3F8" opacity="1.000000" stroke="none" 
	d="
M665.413208,982.862793 
	C662.119690,981.500854 658.450134,980.827942 656.617554,978.626038 
	C653.476807,974.852478 656.100525,969.245483 661.005432,969.129333 
	C674.653259,968.806213 688.316223,968.890137 701.967834,969.126770 
	C705.616211,969.189941 706.993713,972.365906 706.834473,975.563660 
	C706.656311,979.143188 705.031372,981.955994 700.767761,982.049561 
	C689.132751,982.304993 677.498291,982.590393 665.413208,982.862793 
z"/>
<path fill="#72CCDC" opacity="1.000000" stroke="none" 
	d="
M661.679932,1281.959229 
	C657.247070,1280.593994 654.294495,1278.348755 655.098389,1273.623901 
	C655.954041,1268.595581 659.697998,1267.609619 664.088196,1267.836792 
	C664.420288,1267.854004 664.753784,1267.843750 665.086670,1267.843506 
	C674.799805,1267.833008 674.799866,1267.832886 674.939941,1258.007324 
	C675.037415,1251.168091 676.862976,1248.192505 680.893433,1248.303833 
	C685.466370,1248.430176 687.755859,1251.614868 687.873169,1257.911377 
	C688.079590,1268.989868 686.540344,1267.773560 698.266724,1267.872559 
	C705.333557,1267.932251 707.853333,1269.525513 708.058472,1274.199097 
	C708.263794,1278.876587 705.722229,1281.675049 701.017822,1282.031982 
	C696.941406,1282.341309 691.596497,1281.303711 689.181030,1283.484619 
	C687.079834,1285.381958 688.289795,1290.947754 688.039185,1294.892578 
	C687.766968,1299.177612 685.287109,1301.184204 681.194763,1301.130249 
	C677.304504,1301.079102 674.951782,1299.147583 674.893616,1295.005493 
	C674.891235,1294.839111 674.895447,1294.671997 674.882263,1294.506470 
	C674.571533,1290.595703 675.672180,1285.205200 673.555542,1283.183472 
	C671.364807,1281.091064 666.052185,1282.267212 661.679932,1281.959229 
z"/>
<path fill="#59CCDE" opacity="1.000000" stroke="none" 
	d="
M1058.028442,643.018188 
	C1056.293091,643.720032 1054.145630,643.982361 1052.838013,645.169678 
	C1049.068359,648.592529 1044.750610,650.111755 1039.789062,649.987488 
	C1028.087646,649.694336 1016.387756,649.071899 1004.687439,649.076233 
	C992.568237,649.080750 980.449951,649.892700 968.330017,649.929626 
	C958.207275,649.960388 948.082031,649.111328 937.959229,649.139832 
	C924.566406,649.177551 911.175232,649.910645 897.782715,649.930176 
	C887.145569,649.945679 876.509094,649.185303 865.869141,649.073730 
	C860.751343,649.020081 855.623352,649.976379 850.504883,649.930359 
	C842.048889,649.854187 833.596497,649.066772 825.143127,649.077209 
	C815.852722,649.088745 806.564575,649.848694 797.272461,649.923645 
	C791.654297,649.969055 786.027893,649.020630 780.410034,649.070190 
	C770.097168,649.161133 759.789429,649.829041 749.476562,649.920715 
	C743.858948,649.970642 738.233032,649.030823 732.614746,649.071960 
	C723.929443,649.135437 715.241882,650.003357 706.565979,649.863708 
	C700.656006,649.768555 694.297729,649.648438 689.021606,647.436523 
	C685.241394,645.851746 679.678406,643.552795 679.927612,637.245544 
	C679.963318,636.343445 679.421753,635.355164 678.962830,634.506592 
	C674.710571,626.644592 675.772766,620.818909 682.489746,615.189453 
	C683.090637,614.685852 683.647461,614.035461 683.994690,613.338623 
	C686.364807,608.581848 690.378845,606.954712 695.439148,606.985535 
	C705.601135,607.047424 715.763672,607.000305 725.926025,607.000183 
	C829.048767,606.999146 932.171631,606.904114 1035.294067,607.091614 
	C1052.278320,607.122498 1056.866821,613.661621 1061.744263,627.264771 
	C1062.299683,628.813660 1061.190186,631.014648 1060.697144,632.872070 
	C1059.866333,636.001648 1058.910645,639.098145 1058.021729,642.632935 
	C1058.036011,643.057373 1058.000000,643.001099 1058.028442,643.018188 
z"/>
<path fill="#BCF1F6" opacity="1.000000" stroke="none" 
	d="
M1362.276245,1245.230713 
	C1364.972534,1243.345581 1367.216431,1240.954224 1369.901733,1240.252197 
	C1374.415283,1239.072021 1378.673706,1240.540283 1380.883179,1245.047119 
	C1383.039917,1249.446289 1382.605591,1253.760254 1379.043213,1257.470947 
	C1368.322388,1268.638428 1357.603271,1279.807617 1346.892944,1290.985229 
	C1342.290161,1295.788574 1337.807861,1300.711792 1333.093018,1305.401733 
	C1328.505127,1309.965576 1323.681030,1309.965820 1319.095337,1305.486084 
	C1311.944092,1298.500000 1304.936523,1291.367065 1297.805420,1284.360229 
	C1294.379517,1280.994141 1293.826050,1276.580566 1295.470337,1272.829224 
	C1296.671631,1270.088501 1300.211914,1266.740479 1302.814697,1266.648926 
	C1306.269287,1266.527344 1310.368896,1268.655151 1313.213745,1271.001587 
	C1317.639038,1274.651978 1321.241211,1279.300293 1325.477783,1283.831177 
	C1338.199829,1270.481567 1350.110962,1257.982666 1362.276245,1245.230713 
z"/>
<path fill="#B6F3F8" opacity="1.000000" stroke="none" 
	d="
M1135.535400,1266.968994 
	C1140.171509,1270.402832 1144.534912,1273.653442 1148.570801,1277.269531 
	C1150.645996,1279.128906 1152.137451,1281.640015 1154.174927,1284.213013 
	C1156.785034,1281.859497 1158.433716,1280.543945 1159.884277,1279.037720 
	C1171.072021,1267.421387 1182.164185,1255.712646 1193.409302,1244.152344 
	C1198.232788,1239.193726 1205.062256,1238.643677 1208.914185,1242.549805 
	C1213.227173,1246.923584 1212.830200,1253.459961 1207.796021,1258.641724 
	C1193.174316,1273.691772 1178.524780,1288.715088 1163.853394,1303.716675 
	C1157.429199,1310.285400 1153.263550,1310.373657 1146.509277,1303.868164 
	C1140.028809,1297.626465 1133.812744,1291.110107 1127.340454,1284.859497 
	C1123.620850,1281.267334 1122.812988,1276.855835 1124.509033,1272.497681 
	C1126.234619,1268.063599 1130.229492,1266.210693 1135.535400,1266.968994 
z"/>
</svg>