<svg width="100" height="100" viewBox="0 0 100 100" xmlns="http://www.w3.org/2000/svg"><defs><linearGradient id="accountReportGrad" x1="0%" y1="0%" x2="100%" y2="100%"><stop offset="0%" stop-color="#7FE6FF"/><stop offset="100%" stop-color="#35D0FF"/></linearGradient></defs><rect x="10" y="10" width="80" height="80" rx="18" fill="#FFFFFF" stroke="#D6E4FF" stroke-width="1.5"/><rect x="26" y="22" width="48" height="50" rx="8" fill="url(#accountReportGrad)"/><rect x="34" y="30" width="18" height="3.2" rx="1.6" fill="#FFFFFF" opacity="0.95"/><rect x="34" y="39" width="14" height="3.2" rx="1.6" fill="#FFFFFF" opacity="0.84"/><rect x="52" y="39" width="10" height="3.2" rx="1.6" fill="#FFFFFF" opacity="0.92"/><rect x="34" y="47" width="18" height="3.2" rx="1.6" fill="#FFFFFF" opacity="0.78"/><rect x="56" y="47" width="6" height="3.2" rx="1.6" fill="#FFFFFF" opacity="0.86"/><rect x="35" y="57" width="5" height="8" rx="2.2" fill="#FFFFFF" opacity="0.85"/><rect x="44" y="53" width="5" height="12" rx="2.2" fill="#FFFFFF" opacity="0.92"/><rect x="53" y="49" width="5" height="16" rx="2.2" fill="#FFFFFF" opacity="0.98"/><rect x="30" y="76" width="40" height="5.5" rx="2.7" fill="url(#accountReportGrad)" opacity="0.18"/></svg>