<svg width="100" height="100" viewBox="0 0 100 100" xmlns="http://www.w3.org/2000/svg">
<defs>
<linearGradient id="bankGrad" x1="0%" y1="0%" x2="100%" y2="100%">
<stop offset="0%" stop-color="#35D0FF"/>
<stop offset="100%" stop-color="#0A4DFF"/>
</linearGradient>
</defs>
<rect x="10" y="10" width="80" height="80" rx="18"
fill="#FFFFFF" stroke="#D6E4FF" stroke-width="1.5"/>
<path d="M50 24
L74 35.5
Q75.5 36.2 74.2 37.6
Q73.4 38.4 72.2 38.4
H27.8
Q26.6 38.4 25.8 37.6
Q24.5 36.2 26 35.5 Z"
fill="url(#bankGrad)"/>
<rect x="27" y="39.5" width="46" height="4.5" rx="2.2"
fill="url(#bankGrad)"/>
<rect x="30" y="45" width="7" height="21" rx="3.2" fill="url(#bankGrad)"/>
<rect x="41" y="45" width="7" height="21" rx="3.2" fill="url(#bankGrad)"/>
<rect x="52" y="45" width="7" height="21" rx="3.2" fill="url(#bankGrad)"/>
<rect x="63" y="45" width="7" height="21" rx="3.2" fill="url(#bankGrad)"/>
<rect x="25" y="68" width="50" height="5.5" rx="2.7"
fill="url(#bankGrad)"/>
</svg>