
<svg width="100" height="100" viewBox="0 0 100 100" xmlns="http://www.w3.org/2000/svg">
  <defs>
    <linearGradient id="importGrad" x1="0%" y1="0%" x2="100%" y2="100%">
      <stop offset="0%" stop-color="#7FE6FF"/>
      <stop offset="100%" stop-color="#35D0FF"/>
    </linearGradient>
  </defs>
  <rect x="10" y="10" width="80" height="80" rx="18" fill="#FFFFFF" stroke="#D6E4FF" stroke-width="1.5"/>
  <rect x="46" y="22" width="28" height="40" rx="6" fill="url(#importGrad)"/>
  <rect x="52" y="32" width="16" height="3" rx="1.5" fill="#FFFFFF" opacity="0.95"/>
  <rect x="52" y="39" width="12" height="3" rx="1.5" fill="#FFFFFF" opacity="0.85"/>
  <rect x="52" y="46" width="15" height="3" rx="1.5" fill="#FFFFFF" opacity="0.9"/>
  <rect x="52" y="53" width="10" height="3" rx="1.5" fill="#FFFFFF" opacity="0.75"/>
  <path d="M30 36 V54" stroke="url(#importGrad)" stroke-width="4" stroke-linecap="round"/>
  <path d="M24 48 L30 54 L36 48" fill="none" stroke="url(#importGrad)" stroke-width="4" stroke-linecap="round" stroke-linejoin="round"/>
  <path d="M20 60 H40 C42 60 44 62 44 64 V66 C44 68 42 70 40 70 H20 C18 70 16 68 16 66 V64 C16 62 18 60 20 60 Z" fill="none" stroke="url(#importGrad)" stroke-width="3"/>
  <rect x="30" y="75" width="40" height="5.5" rx="2.7" fill="url(#importGrad)" opacity="0.18"/>
</svg>
