
<svg width="100" height="100" viewBox="0 0 100 100" xmlns="http://www.w3.org/2000/svg">
  <defs>
    <linearGradient id="paymentMethodsGrad" x1="0%" y1="0%" x2="100%" y2="100%">
      <stop offset="0%" stop-color="#35D0FF"/>
      <stop offset="100%" stop-color="#0A4DFF"/>
    </linearGradient>
  </defs>
  <rect x="10" y="10" width="80" height="80" rx="18" fill="#FFFFFF" stroke="#D6E4FF" stroke-width="1.5"/>
  <rect x="56" y="24" width="14" height="28" rx="4" fill="none" stroke="url(#paymentMethodsGrad)" stroke-width="3"/>
  <rect x="60.5" y="28.5" width="5" height="2.5" rx="1.2" fill="url(#paymentMethodsGrad)"/>
  <circle cx="63" cy="47" r="1.8" fill="url(#paymentMethodsGrad)"/>
  <rect x="24" y="34" width="44" height="28" rx="7" fill="url(#paymentMethodsGrad)"/>
  <rect x="28" y="40" width="36" height="4.5" rx="2.2" fill="#FFFFFF" opacity="0.9"/>
  <rect x="29" y="49" width="10" height="6.5" rx="2.2" fill="#FFFFFF" opacity="0.9"/>
  <rect x="43" y="51" width="15" height="3.5" rx="1.7" fill="#FFFFFF" opacity="0.85"/>
  <path d="M71 38 Q76 43 71 48" fill="none" stroke="url(#paymentMethodsGrad)" stroke-width="2.6" stroke-linecap="round"/>
  <path d="M76 34 Q84 43 76 52" fill="none" stroke="url(#paymentMethodsGrad)" stroke-width="2.6" stroke-linecap="round"/>
  <rect x="30" y="67" width="40" height="5.5" rx="2.7" fill="url(#paymentMethodsGrad)" opacity="0.18"/>
</svg>
