<svg width="100" height="100" viewBox="0 0 100 100" xmlns="http://www.w3.org/2000/svg">
  <defs>
    <linearGradient id="reconcileGrad" x1="0%" y1="0%" x2="100%" y2="100%">
      <stop offset="0%" stop-color="#7FE6FF"/>
      <stop offset="100%" stop-color="#35D0FF"/>
    </linearGradient>
    <linearGradient id="panelGlow" x1="0%" y1="0%" x2="0%" y2="100%">
      <stop offset="0%" stop-color="#FFFFFF" stop-opacity="0.22"/>
      <stop offset="100%" stop-color="#FFFFFF" stop-opacity="0"/>
    </linearGradient>
  </defs>
  <rect x="10" y="10" width="80" height="80" rx="18" fill="#FFFFFF" stroke="#D6E4FF" stroke-width="1.5"/>
  <rect x="22" y="20" width="56" height="54" rx="10" fill="url(#reconcileGrad)"/>
  <rect x="22" y="20" width="56" height="15" rx="10" fill="url(#panelGlow)"/>
  <rect x="28" y="36" width="14" height="18" rx="3" fill="#FFFFFF" opacity="0.95"/>
  <rect x="31" y="40" width="8" height="2.5" rx="1.2" fill="url(#reconcileGrad)"/>
  <rect x="31" y="45" width="6" height="2.5" rx="1.2" fill="url(#reconcileGrad)" opacity="0.6"/>
  <rect x="58" y="36" width="14" height="18" rx="3" fill="#FFFFFF" opacity="0.95"/>
  <rect x="61" y="40" width="8" height="2.5" rx="1.2" fill="url(#reconcileGrad)"/>
  <rect x="61" y="45" width="6" height="2.5" rx="1.2" fill="url(#reconcileGrad)" opacity="0.6"/>
  <path d="M42 45 C47 45, 53 45, 58 45" fill="none" stroke="#FFFFFF" stroke-width="2.6" stroke-linecap="round" opacity="0.8"/>
  <circle cx="50" cy="60" r="9" fill="#FFFFFF"/>
  <path d="M45.5 60 L49 63.5 L55 56.5" fill="none" stroke="url(#reconcileGrad)" stroke-width="3" stroke-linecap="round" stroke-linejoin="round"/>
  <rect x="30" y="77" width="40" height="5" rx="2.5" fill="url(#reconcileGrad)" opacity="0.18"/>
</svg>