<svg width="100" height="100" viewBox="0 0 100 100" xmlns="http://www.w3.org/2000/svg">
<!-- Top cube -->
<polygon points="50,16 64,24 50,32 36,24" fill="#3B5C66"/>
<polygon points="36,24 50,32 50,48 36,40" fill="#1F3A42"/>
<polygon points="64,24 50,32 50,48 64,40" fill="#2B4A54"/>
<!-- Bottom left -->
<polygon points="28,48 40,55 28,62 16,55" fill="#3B5C66"/>
<polygon points="16,55 28,62 28,76 16,69" fill="#1F3A42"/>
<polygon points="40,55 28,62 28,76 40,69" fill="#2B4A54"/>
<!-- Bottom right -->
<polygon points="72,48 84,55 72,62 60,55" fill="#3B5C66"/>
<polygon points="60,55 72,62 72,76 60,69" fill="#1F3A42"/>
<polygon points="84,55 72,62 72,76 84,69" fill="#2B4A54"/>
</svg>