<svg width="100" height="100" viewBox="0 0 100 100" fill="none" xmlns="http://www.w3.org/2000/svg">
<defs>
<linearGradient id="salesGrad" x1="25" y1="20" x2="75" y2="80" gradientUnits="userSpaceOnUse">
<stop stop-color="#7FE6FF"/>
<stop offset="1" stop-color="#35D0FF"/>
</linearGradient>
</defs>

<circle cx="50" cy="40" r="7" fill="#35D0FF"/>
<path d="M38 64C38 56 44 52 50 52C56 52 62 56 62 64"
stroke="url(#salesGrad)"
stroke-width="4"
stroke-linecap="round"/>

<circle cx="28" cy="46" r="6" fill="#35D0FF" opacity="0.9"/>
<path d="M18 66C18 60 22 56 28 56C34 56 38 60 38 66"
stroke="#35D0FF"
stroke-width="3.5"
stroke-linecap="round"
opacity="0.9"/>

<circle cx="72" cy="46" r="6" fill="#35D0FF" opacity="0.9"/>
<path d="M62 66C62 60 66 56 72 56C78 56 82 60 82 66"
stroke="#35D0FF"
stroke-width="3.5"
stroke-linecap="round"
opacity="0.9"/>

<circle cx="50" cy="68" r="9"
fill="#142C52"
stroke="url(#salesGrad)"
stroke-width="3"/>

<text x="50" y="72"
text-anchor="middle"
font-size="12"
font-family="Arial, sans-serif"
fill="#7FE6FF">€</text>

</svg>