<svg width="100" height="100" viewBox="0 0 100 100" fill="none" xmlns="http://www.w3.org/2000/svg">
<defs>
<linearGradient id="billingGrad" x1="24" y1="20" x2="76" y2="80" gradientUnits="userSpaceOnUse">
<stop stop-color="#7FE6FF"/>
<stop offset="1" stop-color="#35D0FF"/>
</linearGradient>
</defs>
<rect x="24" y="20" width="46" height="58" rx="10"
fill="#0A1633"
stroke="url(#billingGrad)"
stroke-width="3"/>
<path d="M60 20V30H70"
stroke="#35D0FF"
stroke-width="3"
stroke-linecap="round"
stroke-linejoin="round"/>
<line x1="33" y1="35" x2="58" y2="35"
stroke="#35D0FF"
stroke-width="3"
stroke-linecap="round"/>
<line x1="33" y1="45" x2="58" y2="45"
stroke="#35D0FF"
stroke-width="3"
stroke-linecap="round"/>
<line x1="33" y1="55" x2="50" y2="55"
stroke="#35D0FF"
stroke-width="3"
stroke-linecap="round"/>
<circle cx="67" cy="67" r="13"
fill="#142C52"
stroke="url(#billingGrad)"
stroke-width="3"/>
<path d="M72 61.5C70.8 60.6 69.3 60 67.8 60C64.9 60 62.7 61.9 61.9 64.5"
stroke="#7FE6FF"
stroke-width="2.8"
stroke-linecap="round"
stroke-linejoin="round"/>
<line x1="61.5" y1="66" x2="70.5" y2="66"
stroke="#7FE6FF"
stroke-width="2.8"
stroke-linecap="round"/>
<line x1="61.5" y1="69" x2="69.8" y2="69"
stroke="#7FE6FF"
stroke-width="2.8"
stroke-linecap="round"/>
<path d="M61.9 70.5C62.7 73.1 64.9 75 67.8 75C69.3 75 70.8 74.4 72 73.5"
stroke="#7FE6FF"
stroke-width="2.8"
stroke-linecap="round"
stroke-linejoin="round"/>
</svg>