<svg width="100" height="100" viewBox="0 0 100 100" xmlns="http://www.w3.org/2000/svg">
<defs>
<linearGradient id="boxGrad1" x1="0%" y1="0%" x2="100%" y2="100%">
<stop offset="0%" stop-color="#7BE7FF"/>
<stop offset="100%" stop-color="#35D0FF"/>
</linearGradient>
<linearGradient id="boxGrad2" x1="0%" y1="0%" x2="100%" y2="100%">
<stop offset="0%" stop-color="#1E88FF"/>
<stop offset="100%" stop-color="#0A4DFF"/>
</linearGradient>
</defs>
<rect x="10" y="10" width="80" height="80" rx="18" fill="#FFFFFF" stroke="#D6E4FF" stroke-width="1.5"/>
<polygon points="32,36 42,42 32,48 22,42" fill="url(#boxGrad1)"/>
<polygon points="22,42 32,48 32,60 22,54" fill="#0E63FF"/>
<polygon points="42,42 32,48 32,60 42,54" fill="url(#boxGrad2)"/>
<polygon points="50,30 62,38 50,46 38,38" fill="url(#boxGrad1)"/>
<polygon points="38,38 50,46 50,64 38,56" fill="#0E63FF"/>
<polygon points="62,38 50,46 50,64 62,56" fill="url(#boxGrad2)"/>
<polygon points="68,36 78,42 68,48 58,42" fill="url(#boxGrad1)"/>
<polygon points="58,42 68,48 68,60 58,54" fill="#0E63FF"/>
<polygon points="78,42 68,48 68,60 78,54" fill="url(#boxGrad2)"/>
</svg>