<svg width="100" height="100" viewBox="0 0 100 100" xmlns="http://www.w3.org/2000/svg">
<defs>
<linearGradient id="panelGrad" x1="0%" y1="0%" x2="100%" y2="100%">
<stop offset="0%" stop-color="#1A2F5A"/>
<stop offset="100%" stop-color="#0A1633"/>
</linearGradient>
<linearGradient id="gearGrad" x1="0%" y1="0%" x2="100%" y2="100%">
<stop offset="0%" stop-color="#7FE6FF"/>
<stop offset="55%" stop-color="#35D0FF"/>
<stop offset="100%" stop-color="#0A4DFF"/>
</linearGradient>
<radialGradient id="coreGrad" cx="50%" cy="45%" r="70%">
<stop offset="0%" stop-color="#1E3A70"/>
<stop offset="100%" stop-color="#0B1736"/>
</radialGradient>
</defs>
<rect x="10" y="10" width="80" height="80" rx="18"
fill="url(#panelGrad)" stroke="#FFFFFF" stroke-width="1.5"/>
<g transform="translate(50 50)">
<rect x="-2.5" y="-24" width="5" height="9" rx="1.2" fill="url(#gearGrad)"/>
<rect x="-2.5" y="15" width="5" height="9" rx="1.2" fill="url(#gearGrad)"/>
<rect x="-24" y="-2.5" width="9" height="5" rx="1.2" fill="url(#gearGrad)"/>
<rect x="15" y="-2.5" width="9" height="5" rx="1.2" fill="url(#gearGrad)"/>
<rect x="-4" y="-24" width="5" height="9" rx="1.2" transform="rotate(45)" fill="url(#gearGrad)"/>
<rect x="-4" y="-24" width="5" height="9" rx="1.2" transform="rotate(135)" fill="url(#gearGrad)"/>
<rect x="-4" y="-24" width="5" height="9" rx="1.2" transform="rotate(225)" fill="url(#gearGrad)"/>
<rect x="-4" y="-24" width="5" height="9" rx="1.2" transform="rotate(315)" fill="url(#gearGrad)"/>
<circle r="18" fill="url(#gearGrad)"/>
<circle r="11" fill="url(#coreGrad)"/>
<circle r="5" fill="#35D0FF" opacity="0.9"/>
</g>
</svg>