<svg width="100" height="100" viewBox="0 0 100 100" xmlns="http://www.w3.org/2000/svg">

<defs>
  <linearGradient id="clientGrad1" x1="0%" y1="0%" x2="100%" y2="100%">
    <stop offset="0%" stop-color="#35D0FF"/>
    <stop offset="100%" stop-color="#0A4DFF"/>
  </linearGradient>

  <linearGradient id="clientGrad2" x1="0%" y1="0%" x2="100%" y2="0%">
    <stop offset="0%" stop-color="#0A4DFF"/>
    <stop offset="100%" stop-color="#35D0FF"/>
  </linearGradient>

  <linearGradient id="cardGlow" x1="0%" y1="0%" x2="100%" y2="100%">
    <stop offset="0%" stop-color="#1B2B5C"/>
    <stop offset="100%" stop-color="#122247"/>
  </linearGradient>
</defs>

<!-- marco exterior -->
<rect x="10" y="10" width="80" height="80" rx="18" fill="#0F1C3F"/>

<!-- tarjeta/ficha cliente -->
<rect x="20" y="24" width="60" height="52" rx="12" fill="url(#cardGlow)"/>

<!-- avatar -->
<circle cx="37" cy="40" r="9" fill="url(#clientGrad1)"/>
<path d="M25 59C25 52.5 30.8 48 37 48C43.2 48 49 52.5 49 59V61H25V59Z" fill="url(#clientGrad2)"/>

<!-- lineas de ficha -->
<rect x="53" y="33" width="17" height="4" rx="2" fill="#35D0FF"/>
<rect x="53" y="41" width="12" height="3.5" rx="1.75" fill="#7FE6FF" opacity="0.95"/>
<rect x="25" y="66" width="46" height="3.5" rx="1.75" fill="#29437A"/>
<rect x="25" y="72" width="32" height="3.5" rx="1.75" fill="#29437A"/>

<!-- detalle tech esquina -->
<path d="M68 24H74C77.3 24 80 26.7 80 30V36" fill="none" stroke="#35D0FF" stroke-width="3" stroke-linecap="round" opacity="0.95"/>
<circle cx="80" cy="36" r="2.5" fill="#35D0FF"/>

</svg>
