<svg width="100" height="100" viewBox="0 0 100 100" xmlns="http://www.w3.org/2000/svg">
<defs>
<linearGradient id="changeGrad" x1="0%" y1="0%" x2="100%" y2="100%">
<stop offset="0%" stop-color="#35D0FF"/>
<stop offset="100%" stop-color="#0A4DFF"/>
</linearGradient>
<linearGradient id="euroGrad" x1="0%" y1="0%" x2="100%" y2="100%">
<stop offset="0%" stop-color="#FFFFFF"/>
<stop offset="50%" stop-color="#7BE7FF"/>
<stop offset="100%" stop-color="#0A7BFF"/>
</linearGradient>
</defs>
<rect x="10" y="10" width="80" height="80" rx="18" fill="#FFFFFF" stroke="#D6E4FF" stroke-width="1.5"/>
<path d="M30 42 C36 28,54 24,67 29 C75 32,79 39,79 47 L72 47 L81 58 L90 47 L83 47 C83 35,77 26,67 22 C51 16,31 22,22 36 Z" fill="url(#changeGrad)"/>
<path d="M70 58 C64 72,46 76,33 71 C25 68,21 61,21 53 L28 53 L19 42 L10 53 L17 53 C17 65,23 74,33 78 C49 84,69 78,78 64 Z" fill="url(#changeGrad)"/>
<circle cx="50" cy="50" r="12" fill="#132754" stroke="url(#changeGrad)" stroke-width="2"/>
<text x="50" y="55" font-size="13" text-anchor="middle" fill="url(#euroGrad)" font-family="Arial" font-weight="bold">€</text>
</svg>